<?xml version="1.0" encoding="UTF-8"?>
<svg width="72px" height="72px" viewBox="0 0 72 72" version="1.1" xmlns="http://www.w3.org/2000/svg" xmlns:xlink="http://www.w3.org/1999/xlink">
    <!-- Generator: sketchtool 54.1 (76490) - https://sketchapp.com -->
    <title>62024405-1E8A-421E-888A-87D715A9ED1F</title>
    <desc>Created with sketchtool.</desc>
    <g id="developer.equinor.com-V-4.0" stroke="none" stroke-width="1" fill="none" fill-rule="evenodd">
        <g id="Style" transform="translate(-605.000000, -644.000000)">
            <g id="Icon_tag/Frame/General" transform="translate(605.000000, 644.000000)">
                <circle id="Oval" stroke="#FF1243" fill="#FFFFFF" cx="36" cy="36" r="35.5"></circle>
                <path d="M40.3207999,19.9725237 C40.5381603,19.9178991 40.7656923,19.8888889 41,19.8888889 C42.5341243,19.8888889 43.7777778,21.1325424 43.7777778,22.6666667 C43.7777778,23.81566 43.0801668,24.8017176 42.0853937,25.2243905 C42.2506714,25.9386858 42.3999984,26.6839982 42.5319828,27.4564735 C46.7084744,27.894649 50.5061495,28.7506652 53.9245833,30.025634 C51.6836556,23.2991082 45.76228,18.2548155 38.5493884,17.281688 C39.1878864,17.9489041 39.7832729,18.8594629 40.3207999,19.9725237 Z M39.3353497,20.4427278 C38.3390532,18.3404819 37.1711809,17.1111111 36,17.1111111 C33.8549534,17.1111111 31.7210052,21.2350139 30.6319584,27.292576 C32.2356852,27.1719511 33.9066888,27.1116881 35.6449591,27.1116881 C37.6269964,27.1116881 39.5379414,27.1900407 41.3777595,27.3468363 C41.2604177,26.6891392 41.1307685,26.0540737 40.9901278,25.4444273 C39.4605439,25.4391056 38.2222222,24.1974989 38.2222222,22.6666667 C38.2222222,21.756974 38.6595104,20.9494154 39.3353497,20.4427278 Z M31.6792001,52.0274763 C31.4618397,52.0821009 31.2343077,52.1111111 31,52.1111111 C29.4658757,52.1111111 28.2222222,50.8674576 28.2222222,49.3333333 C28.2222222,48.18434 28.9198332,47.1982824 29.9146063,46.7756095 C29.7464594,46.0489138 29.5948217,45.2901147 29.461159,44.5032707 C25.2822032,44.0655808 21.4823989,43.2096814 18.0621714,41.9344588 C20.2929408,48.6809345 26.2234629,53.7432609 33.4506116,54.718312 C32.8121136,54.0510959 32.2167271,53.1405371 31.6792001,52.0274763 Z M31.0098722,46.5555727 C32.5394561,46.5608944 33.7777778,47.8025011 33.7777778,49.3333333 C33.7777778,50.243026 33.3404896,51.0505846 32.6646503,51.5572722 C33.6609468,53.6595181 34.8288191,54.8888889 36,54.8888889 C38.1501411,54.8888889 40.289131,50.7453742 41.3757834,44.6642309 C39.7644899,44.7861027 38.0852244,44.8469884 36.3379973,44.8469884 C34.3594936,44.8469884 32.4518291,44.7689149 30.6150379,44.612678 C30.7342702,45.2848068 30.8663477,45.9334258 31.0098722,46.5555727 Z M45.4743699,43.0758427 C45.454656,42.9423085 45.4444444,42.8056801 45.4444444,42.6666667 C45.4444444,41.1325424 46.6880979,39.8888889 48.2222222,39.8888889 C49.4743907,39.8888889 50.5330476,40.7174104 50.879891,41.8561517 C52.0909711,41.4886572 53.2399134,41.0673768 54.3267269,40.5923978 C54.6939396,39.1222553 54.8888889,37.5838941 54.8888889,36 C54.8888889,34.4018795 54.6904218,32.8501135 54.3167904,31.3680046 C50.8699751,29.9914343 47.0014665,29.0660689 42.7107674,28.5932096 C43.0407544,30.8839398 43.2222222,33.3832842 43.2222222,36 C43.2222222,38.6261117 43.0394488,41.1340076 42.707207,43.4314585 C43.6556744,43.3355551 44.5780612,43.2170086 45.4743699,43.0758427 Z M45.8659627,44.1384524 C44.789369,44.3131461 43.6767844,44.4555011 42.5282129,44.5655561 C41.7303428,49.2205561 40.3023397,52.8865172 38.5493884,54.718312 C45.765974,53.7446861 51.6897204,48.6957239 53.9280234,41.9640299 C52.987246,42.3417214 52.0052006,42.6822218 50.9818921,42.9855784 C50.8237052,44.3695038 49.6484967,45.4444444 48.2222222,45.4444444 C47.2286561,45.4444444 46.3569258,44.9228033 45.8659627,44.1384524 Z M28.8447443,38.734948 C27.5436186,38.5040734 26.5555556,37.367424 26.5555556,36 C26.5555556,34.632576 27.5436186,33.4959266 28.8447443,33.265052 C28.9263666,31.6121114 29.0809211,30.0234844 29.2991318,28.5248587 C28.5536844,28.5999076 27.8243328,28.688931 27.1110759,28.7919175 C27.1034622,30.3195365 25.8627416,31.5555556 24.3333333,31.5555556 C23.1990136,31.5555556 22.2234945,30.8756489 21.7920779,29.9011373 C20.3374506,30.3103745 18.9691097,30.7943212 17.6870406,31.3528346 C17.3109349,32.8395237 17.1111111,34.3964262 17.1111111,36 C17.1111111,37.5843375 17.3061696,39.1231166 17.6735815,40.5936325 C21.1215524,41.9697755 24.9913518,42.8945685 29.283477,43.3667096 C29.0735191,41.8999597 28.9244009,40.3480804 28.8447443,38.734948 Z M29.9574391,38.7073885 C30.0426369,40.3802432 30.2047799,41.9813324 30.429944,43.4811555 C32.3201404,43.6509348 34.2894781,43.7358773 36.3379973,43.7358773 C38.1562172,43.7358773 39.8975148,43.6689584 41.5619024,43.5352408 C41.9110767,41.2286795 42.1111111,38.6809905 42.1111111,36 C42.1111111,33.324335 41.9118706,30.7814423 41.5639815,28.4785072 C39.6704351,28.3080706 37.6974412,28.2227992 35.6449591,28.2227992 C33.8353338,28.2227992 32.1019052,28.2890869 30.4446614,28.4215439 C30.2118389,29.9493529 30.044482,31.5835284 29.9574391,33.2926115 C31.1910409,33.5758213 32.1111111,34.6804637 32.1111111,36 C32.1111111,37.3195363 31.1910409,38.4241787 29.9574391,38.7073885 Z M26.8945282,27.7005899 C27.7348741,27.5782403 28.5964639,27.4749739 29.4792958,27.3907732 C30.2785975,22.7565186 31.7031457,19.1077507 33.4506116,17.281688 C26.2539085,18.2526315 20.3429305,23.2764861 18.0905608,29.9803688 C19.1894552,29.5407812 20.3445307,29.1518238 21.5557796,28.8134212 C21.5556304,28.8015578 21.5555556,28.7896765 21.5555556,28.7777778 C21.5555556,27.2436535 22.799209,26 24.3333333,26 C25.4854834,26 26.4738012,26.7014494 26.8945282,27.7005899 Z M36,56 C24.954305,56 16,47.045695 16,36 C16,24.954305 24.954305,16 36,16 C47.045695,16 56,24.954305 56,36 C56,47.045695 47.045695,56 36,56 Z M41,24.3333333 C41.9204746,24.3333333 42.6666667,23.5871412 42.6666667,22.6666667 C42.6666667,21.7461921 41.9204746,21 41,21 C40.0795254,21 39.3333333,21.7461921 39.3333333,22.6666667 C39.3333333,23.5871412 40.0795254,24.3333333 41,24.3333333 Z M24.3333333,30.4444444 C25.2538079,30.4444444 26,29.6982524 26,28.7777778 C26,27.8573032 25.2538079,27.1111111 24.3333333,27.1111111 C23.4128588,27.1111111 22.6666667,27.8573032 22.6666667,28.7777778 C22.6666667,29.6982524 23.4128588,30.4444444 24.3333333,30.4444444 Z M29.3333333,37.6666667 C30.2538079,37.6666667 31,36.9204746 31,36 C31,35.0795254 30.2538079,34.3333333 29.3333333,34.3333333 C28.4128588,34.3333333 27.6666667,35.0795254 27.6666667,36 C27.6666667,36.9204746 28.4128588,37.6666667 29.3333333,37.6666667 Z M31,51 C31.9204746,51 32.6666667,50.2538079 32.6666667,49.3333333 C32.6666667,48.4128588 31.9204746,47.6666667 31,47.6666667 C30.0795254,47.6666667 29.3333333,48.4128588 29.3333333,49.3333333 C29.3333333,50.2538079 30.0795254,51 31,51 Z M48.3529412,44.2352941 C49.3275613,44.2352941 50.1176471,43.4452084 50.1176471,42.4705882 C50.1176471,41.4959681 49.3275613,40.7058824 48.3529412,40.7058824 C47.378321,40.7058824 46.5882353,41.4959681 46.5882353,42.4705882 C46.5882353,43.4452084 47.378321,44.2352941 48.3529412,44.2352941 Z" id="Combined-Shape" fill="#FF1243" fill-rule="nonzero"></path>
            </g>
        </g>
    </g>
</svg>