<?xml version="1.0" encoding="UTF-8"?>
<svg width="72px" height="72px" viewBox="0 0 72 72" version="1.1" xmlns="http://www.w3.org/2000/svg" xmlns:xlink="http://www.w3.org/1999/xlink">
    <!-- Generator: sketchtool 54.1 (76490) - https://sketchapp.com -->
    <title>6C7B4E3C-6C50-4E18-9478-9AABF8A9CDEC</title>
    <desc>Created with sketchtool.</desc>
    <g id="developer.equinor.com-V-4.0" stroke="none" stroke-width="1" fill="none" fill-rule="evenodd">
        <g id="Style" transform="translate(-293.000000, -644.000000)">
            <g id="Icon_tag/Frame/OpenSource" transform="translate(293.000000, 644.000000)">
                <circle id="Oval" stroke="#FF1243" fill="#FFFFFF" cx="36" cy="36" r="35.5"></circle>
                <g id="Group" transform="translate(16.000000, 21.000000)" fill="#FF1243">
                    <path d="M3.27063291,1.26746831 C2.16514768,1.26746831 1.26582278,2.1679623 1.26582278,3.27488463 L1.26582278,27.261976 C1.26582278,28.3688138 2.16514768,29.2693923 3.27063291,29.2693923 L36.7140084,29.2693923 C37.8194093,29.2693923 38.7188186,28.3688138 38.7188186,27.261976 L38.7188186,3.27488463 C38.7188186,2.1679623 37.8194093,1.26746831 36.7140084,1.26746831 L3.27063291,1.26746831 Z M36.7140084,30.5368606 L3.27063291,30.5368606 C1.46725738,30.5368606 4.26325641e-14,29.0676958 4.26325641e-14,27.261976 L4.26325641e-14,3.27488463 C4.26325641e-14,1.46908027 1.46725738,0 3.27063291,0 L36.7140084,0 C38.517384,0 39.9846414,1.46908027 39.9846414,3.27488463 L39.9846414,27.261976 C39.9846414,29.0676958 38.517384,30.5368606 36.7140084,30.5368606 L36.7140084,30.5368606 Z" id="Fill-1"></path>
                    <path d="M36.4285883,7.59565031 L4.15968074,7.59565031 C3.81152948,7.59565031 3.52942864,7.33227776 3.52942864,7.00741501 C3.52942864,6.68255227 3.81152948,6.41917972 4.15968074,6.41917972 L36.4285883,6.41917972 C36.7767396,6.41917972 37.0588404,6.68255227 37.0588404,7.00741501 C37.0588404,7.33227776 36.7767396,7.59565031 36.4285883,7.59565031" id="Fill-4"></path>
                    <path d="M5.29417667,5.24270913 C4.64544692,5.24270913 4.11766394,4.71492615 4.11766394,4.06628069 C4.11766394,3.41755094 4.64544692,2.88976796 5.29417667,2.88976796 C5.94282213,2.88976796 6.47060511,3.41755094 6.47060511,4.06628069 C6.47060511,4.71492615 5.94282213,5.24270913 5.29417667,5.24270913" id="Path"></path>
                    <path d="M8.82358843,5.24270913 C8.17485869,5.24270913 7.6470757,4.71492615 7.6470757,4.06628069 C7.6470757,3.41755094 8.17485869,2.88976796 8.82358843,2.88976796 C9.47223389,2.88976796 10.0000169,3.41755094 10.0000169,4.06628069 C10.0000169,4.71492615 9.47223389,5.24270913 8.82358843,5.24270913" id="Path"></path>
                    <path d="M12.3521539,5.24270913 C12.2329062,5.24270913 12.1118044,5.22442098 11.9923038,5.18599057 C11.3750808,4.98718064 11.0344451,4.32316054 11.2331633,3.70574573 C11.43205,3.08824665 12.0960452,2.74768246 12.713521,2.94649239 C13.3309126,3.14530231 13.671464,3.80940669 13.4727458,4.42673723 C13.4726615,4.4268215 13.4726615,4.42690578 13.4726615,4.42690578 C13.312288,4.92489979 12.8492022,5.24270913 12.3521539,5.24270913 L12.3521539,5.24270913 Z" id="Path"></path>
                    <path d="M15.2772042,23.4780032 C15.1264966,23.4780032 14.9755469,23.419771 14.8582402,23.3027192 L10.1860617,18.6378471 C10.0672222,18.519201 10.0000169,18.3552446 10.0000169,18.1839042 C10.0000169,18.0125638 10.0672222,17.8486073 10.1860617,17.7298773 L14.8582402,13.0650892 C15.0992272,12.8244407 15.4823699,12.8324959 15.7137561,13.0832973 C15.9452231,13.3339308 15.9373972,13.7324105 15.6963296,13.973059 L11.4788557,18.1839042 L15.6963296,22.3946655 C15.9373972,22.6353979 15.9452231,23.0337937 15.7137561,23.2845111 C15.5949166,23.4132262 15.4362218,23.4780032 15.2772042,23.4780032" id="Fill-12"></path>
                    <path d="M24.7228295,23.4780032 C24.563812,23.4780032 24.4051172,23.4132262 24.2862776,23.2845111 C24.0548107,23.0337937 24.0626365,22.6353979 24.3037042,22.3946655 L28.5211781,18.1839042 L24.3037042,13.973059 C24.0626365,13.7324105 24.0548107,13.3339308 24.2862776,13.0832973 C24.5177445,12.8324959 24.9007258,12.8244407 25.1417935,13.0650892 L29.813972,17.7298773 C29.9328116,17.8486073 30.0000169,18.0125638 30.0000169,18.1839042 C30.0000169,18.3552446 29.9328116,18.519201 29.813972,18.6378471 L25.1417935,23.3027192 C25.0244868,23.419771 24.8735372,23.4780032 24.7228295,23.4780032" id="Fill-14"></path>
                    <path d="M17.1252964,23.4780032 C17.0216058,23.4780032 16.9164302,23.4543417 16.8185051,23.4043336 C16.4989598,23.2413039 16.3775362,22.860286 16.5473546,22.5533572 L21.7073372,13.2239971 C21.8770683,12.9170683 22.2738355,12.8003548 22.5932934,12.9634684 C22.9128386,13.1264981 23.0342623,13.507516 22.8644439,13.8144448 L17.7044612,23.1438049 C17.5867064,23.3566749 17.3599324,23.4780032 17.1252964,23.4780032" id="Fill-16"></path>
                </g>
            </g>
        </g>
    </g>
</svg>