<?xml version="1.0" encoding="UTF-8"?>
<svg width="72px" height="72px" viewBox="0 0 72 72" version="1.1" xmlns="http://www.w3.org/2000/svg" xmlns:xlink="http://www.w3.org/1999/xlink">
    <!-- Generator: sketchtool 54.1 (76490) - https://sketchapp.com -->
    <title>56FD805B-3F5F-43FD-9301-E579D25A39D0</title>
    <desc>Created with sketchtool.</desc>
    <g id="developer.equinor.com-V-4.0" stroke="none" stroke-width="1" fill="none" fill-rule="evenodd">
        <g id="Style" transform="translate(-397.000000, -644.000000)">
            <g id="Icon_tag/Frame/Security" transform="translate(397.000000, 644.000000)">
                <circle id="Oval" stroke="#FF1243" fill="#FFFFFF" cx="36" cy="36" r="35.5"></circle>
                <g id="Group" transform="translate(20.000000, 16.000000)" fill="#FF1243">
                    <path d="M3.00442943,6.11091662 L3.00442943,6.65714301 C2.41500859,6.65714301 1.95423496,6.69152048 1.64309101,6.7557131 C1.30772994,6.82483723 1.07822468,7.12564944 1.09679201,7.47684188 L1.99024753,22.8700033 C2.18527568,26.7109475 4.06595512,30.1901503 7.14759005,32.4196808 L15.8905593,38.6098274 L24.6333243,32.4197199 C27.7152484,30.1900358 29.5957793,26.7107531 29.7907805,22.8700691 L30.6839455,7.48243963 C30.7020846,7.13975622 30.4622131,6.82712796 30.1348393,6.76072507 C29.8532608,6.703694 29.4437815,6.67308771 28.9253353,6.67308771 C28.8220074,6.67308771 28.7159686,6.67428017 28.6072965,6.67665043 C28.491823,6.67915166 28.3753211,6.68039242 28.2580944,6.68039242 C24.9471619,6.68047374 21.7798831,5.68042047 19.1022715,3.78897189 L16.0682554,1.64579887 C16.016018,1.60894164 15.9570693,1.59018629 15.8944409,1.59018629 C15.8314912,1.59018629 15.7723642,1.60910869 15.7201257,1.64626426 L12.7746174,3.74106733 C10.0864967,5.65281803 6.94108543,6.66428777 3.68161391,6.66436918 C3.57401092,6.66436918 3.46633214,6.66322846 3.35903606,6.66095663 C3.23497953,6.65843355 3.11707414,6.65714301 3.00442943,6.65714301 L3.00442943,6.11091662 Z M3.00442943,6.11091662 L3.00442943,5.56469022 C3.12483114,5.56469022 3.25014434,5.56606184 3.3818478,5.56874064 C3.48184963,5.57085784 3.58177145,5.57191639 3.68160018,5.57191639 C6.71202712,5.5718407 9.63511228,4.63186434 12.1381537,2.85173923 L15.0836374,0.756953637 C15.3213851,0.587851448 15.6029776,0.497733499 15.8944409,0.497733499 C16.1842396,0.497733499 16.4643261,0.586846955 16.7016184,0.754273699 L19.7358802,2.89762022 C22.2278076,4.65790258 25.1735772,5.58801539 28.2580809,5.58793963 C28.3674493,5.58793963 28.4760173,5.58678337 28.583407,5.58445724 C28.699865,5.58191716 28.8138872,5.58063492 28.9253353,5.58063492 C29.5108922,5.58063492 29.9886696,5.61634611 30.353194,5.69017711 C31.2152792,5.86503816 31.8249162,6.65958751 31.7781597,7.54277494 L30.8850555,22.9292309 C30.6735645,27.0950009 28.6280889,30.8794576 25.2724619,33.3071227 L15.8905655,39.9497883 L15.5732726,39.7251404 L6.50845527,33.3070857 C3.15312876,30.8795806 1.10749391,27.0952151 0.895972648,22.9291688 L0.00257655332,7.53715372 C-0.044488408,6.64728694 0.552384107,5.864967 1.42109098,5.68591042 C1.8171047,5.60420817 2.34677796,5.56469022 3.00442943,5.56469022 L3.00442943,6.11091662 Z" id="Path"></path>
                    <path d="M14.8046845,23.1983206 C14.662393,23.1983206 14.5254797,23.1424302 14.4243698,23.0422235 L12.2123213,20.8499352 C12.0022647,20.641755 12.0022647,20.3042807 12.2123213,20.0961005 C12.4223779,19.8879965 12.762894,19.8879965 12.9729507,20.0961005 L14.761659,21.8689065 L18.6129022,17.1345963 C18.7993716,16.9053239 19.1378133,16.8694597 19.3691522,17.0541872 C19.6004142,17.2389148 19.6367554,17.5744855 19.450286,17.8036817 L15.223338,22.9998869 C15.1276062,23.117607 14.9857757,23.1894878 14.8334194,23.1975591 C14.8238155,23.1980921 14.8142116,23.1983206 14.8046845,23.1983206" id="Fill-6"></path>
                    <path d="M15.8903953,27.3470486 C20.1271002,27.3470486 23.5616281,23.9125206 23.5616281,19.6758157 C23.5616281,15.4391108 20.1271002,12.0045828 15.8903953,12.0045828 C11.6536903,12.0045828 8.21916238,15.4391108 8.21916238,19.6758157 C8.21916238,23.9125206 11.6536903,27.3470486 15.8903953,27.3470486 Z M15.8903953,28.442939 C11.0484468,28.442939 7.12327197,24.5177642 7.12327197,19.6758157 C7.12327197,14.8338672 11.0484468,10.9086924 15.8903953,10.9086924 C20.7323437,10.9086924 24.6575185,14.8338672 24.6575185,19.6758157 C24.6575185,24.5177642 20.7323437,28.442939 15.8903953,28.442939 Z" id="Oval"></path>
                </g>
            </g>
        </g>
    </g>
</svg>