<?xml version="1.0" encoding="UTF-8"?>
<svg width="56px" height="56px" viewBox="0 0 56 56" version="1.1" xmlns="http://www.w3.org/2000/svg" xmlns:xlink="http://www.w3.org/1999/xlink">
    <!-- Generator: sketchtool 53.2 (72643) - https://sketchapp.com -->
    <title>93580C6E-D1B5-422B-8BD9-A6417504C04B</title>
    <desc>Created with sketchtool.</desc>
    <g id="developer.equinor.com-V-4.0" stroke="none" stroke-width="1" fill="none" fill-rule="evenodd">
        <g id="Style" transform="translate(-93.000000, -589.000000)" fill="#FF1243">
            <g id="Icon_tag/Api" transform="translate(93.000000, 589.000000)">
                <g id="Group-13">
                    <path d="M43.5555556,36.9444444 C43.5555556,34.1526818 41.2917782,31.8888889 38.5,31.8888889 C35.7082218,31.8888889 33.4444444,34.1526818 33.4444444,36.9444444 C33.4444444,39.7362071 35.7082218,42 38.5,42 C41.2917782,42 43.5555556,39.7362071 43.5555556,36.9444444 Z M45.1111111,36.9444444 C45.1111111,40.5953143 42.1508902,43.5555556 38.5,43.5555556 C34.8491098,43.5555556 31.8888889,40.5953143 31.8888889,36.9444444 C31.8888889,33.2935745 34.8491098,30.3333333 38.5,30.3333333 C42.1508902,30.3333333 45.1111111,33.2935745 45.1111111,36.9444444 Z" id="Stroke-1"></path>
                    <path d="M22.5555556,36.9444444 C22.5555556,34.1526818 20.2917782,31.8888889 17.5,31.8888889 C14.7082218,31.8888889 12.4444444,34.1526818 12.4444444,36.9444444 C12.4444444,39.7362071 14.7082218,42 17.5,42 C20.2917782,42 22.5555556,39.7362071 22.5555556,36.9444444 Z M24.1111111,36.9444444 C24.1111111,40.5953143 21.1508902,43.5555556 17.5,43.5555556 C13.8491098,43.5555556 10.8888889,40.5953143 10.8888889,36.9444444 C10.8888889,33.2935745 13.8491098,30.3333333 17.5,30.3333333 C21.1508902,30.3333333 24.1111111,33.2935745 24.1111111,36.9444444 Z" id="Stroke-3"></path>
                    <path d="M20.2222222,49.7777778 C19.7926674,49.7777778 19.4444444,49.4295548 19.4444444,49 C19.4444444,48.5704452 19.7926674,48.2222222 20.2222222,48.2222222 L35.7777778,48.2222222 C36.2073326,48.2222222 36.5555556,48.5704452 36.5555556,49 C36.5555556,49.4295548 36.2073326,49.7777778 35.7777778,49.7777778 L20.2222222,49.7777778 Z" id="Stroke-5"></path>
                    <path d="M56,34.0215054 L56,39.4408602 C56,41.370988 54.0579829,43.2643748 52.2878788,43.725449 L52.2878788,55.2222222 C52.2878788,55.651777 51.9396558,56 51.510101,56 L4.48989899,56 C4.06034418,56 3.71212121,55.651777 3.71212121,55.2222222 L3.71212121,43.725449 C1.9420171,43.2643748 0,41.370988 0,39.4408602 L0,34.0215054 C0,32.0922347 1.94227599,30.1983022 3.71212121,29.7369947 L3.71212121,23.1827957 C3.71212121,18.8703073 7.47125953,15.5555556 11.9636364,15.5555556 L44.0363636,15.5555556 C48.5287405,15.5555556 52.2878788,18.8703073 52.2878788,23.1827957 L52.2878788,29.7369947 C54.057724,30.1983022 56,32.0922347 56,34.0215054 Z M50.7323232,54.4444444 L50.7323232,43.0537634 C50.7323232,42.6242086 51.0805462,42.2759857 51.510101,42.2759857 C52.625089,42.2759857 54.4444444,40.738035 54.4444444,39.4408602 L54.4444444,34.0215054 C54.4444444,32.7251605 52.6245438,31.1863799 51.510101,31.1863799 C51.0805462,31.1863799 50.7323232,30.838157 50.7323232,30.4086022 L50.7323232,23.1827957 C50.7323232,19.7760224 47.7101451,17.1111111 44.0363636,17.1111111 L11.9636364,17.1111111 C8.28985491,17.1111111 5.26767677,19.7760224 5.26767677,23.1827957 L5.26767677,30.4086022 C5.26767677,30.838157 4.9194538,31.1863799 4.48989899,31.1863799 C3.37545622,31.1863799 1.55555556,32.7251605 1.55555556,34.0215054 L1.55555556,39.4408602 C1.55555556,40.738035 3.374911,42.2759857 4.48989899,42.2759857 C4.9194538,42.2759857 5.26767677,42.6242086 5.26767677,43.0537634 L5.26767677,54.4444444 L50.7323232,54.4444444 Z" id="Stroke-7"></path>
                    <polygon id="Stroke-9" points="28.7777778 17.1111111 27.2222222 17.1111111 27.2222222 7 28.7777778 7"></polygon>
                    <path d="M30.3333333,3.88888889 C30.3333333,2.60003554 29.2888534,1.55555556 28,1.55555556 C26.7111466,1.55555556 25.6666667,2.60003554 25.6666667,3.88888889 C25.6666667,5.17774224 26.7111466,6.22222222 28,6.22222222 C29.2888534,6.22222222 30.3333333,5.17774224 30.3333333,3.88888889 Z M31.8888889,3.88888889 C31.8888889,6.03685185 30.147963,7.77777778 28,7.77777778 C25.852037,7.77777778 24.1111111,6.03685185 24.1111111,3.88888889 C24.1111111,1.74092593 25.852037,0 28,0 C30.147963,0 31.8888889,1.74092593 31.8888889,3.88888889 Z" id="Stroke-11"></path>
                </g>
            </g>
        </g>
    </g>
</svg>