<?xml version="1.0" encoding="UTF-8"?>
<svg width="72px" height="72px" viewBox="0 0 72 72" version="1.1" xmlns="http://www.w3.org/2000/svg" xmlns:xlink="http://www.w3.org/1999/xlink">
    <!-- Generator: sketchtool 53.2 (72643) - https://sketchapp.com -->
    <title>5707F74B-AC36-45FC-9245-17C1F2E023C5</title>
    <desc>Created with sketchtool.</desc>
    <g id="developer.equinor.com-V-4.0" stroke="none" stroke-width="1" fill="none" fill-rule="evenodd">
        <g id="Style" transform="translate(-85.000000, -472.000000)">
            <g id="Icon_tag/Frame/Api" transform="translate(85.000000, 472.000000)">
                <circle id="Oval" stroke="#FF1243" fill="#FFFFFF" cx="36" cy="36" r="35.5"></circle>
                <g id="Group-13" transform="translate(16.000000, 12.000000)" fill="#FF1243">
                    <path d="M31.1111111,26.3888889 C31.1111111,24.3947727 29.4941273,22.7777778 27.5,22.7777778 C25.5058727,22.7777778 23.8888889,24.3947727 23.8888889,26.3888889 C23.8888889,28.3830051 25.5058727,30 27.5,30 C29.4941273,30 31.1111111,28.3830051 31.1111111,26.3888889 Z M32.2222222,26.3888889 C32.2222222,28.9966531 30.1077787,31.1111111 27.5,31.1111111 C24.8922213,31.1111111 22.7777778,28.9966531 22.7777778,26.3888889 C22.7777778,23.7811247 24.8922213,21.6666667 27.5,21.6666667 C30.1077787,21.6666667 32.2222222,23.7811247 32.2222222,26.3888889 Z" id="Stroke-1"></path>
                    <path d="M16.1111111,26.3888889 C16.1111111,24.3947727 14.4941273,22.7777778 12.5,22.7777778 C10.5058727,22.7777778 8.88888889,24.3947727 8.88888889,26.3888889 C8.88888889,28.3830051 10.5058727,30 12.5,30 C14.4941273,30 16.1111111,28.3830051 16.1111111,26.3888889 Z M17.2222222,26.3888889 C17.2222222,28.9966531 15.1077787,31.1111111 12.5,31.1111111 C9.8922213,31.1111111 7.77777778,28.9966531 7.77777778,26.3888889 C7.77777778,23.7811247 9.8922213,21.6666667 12.5,21.6666667 C15.1077787,21.6666667 17.2222222,23.7811247 17.2222222,26.3888889 Z" id="Stroke-3"></path>
                    <path d="M14.4444444,35.5555556 C14.1376196,35.5555556 13.8888889,35.3068249 13.8888889,35 C13.8888889,34.6931751 14.1376196,34.4444444 14.4444444,34.4444444 L25.5555556,34.4444444 C25.8623804,34.4444444 26.1111111,34.6931751 26.1111111,35 C26.1111111,35.3068249 25.8623804,35.5555556 25.5555556,35.5555556 L14.4444444,35.5555556 Z" id="Stroke-5"></path>
                    <path d="M40,24.3010753 L40,28.172043 C40,29.5507057 38.6128449,30.9031248 37.3484848,31.2324636 L37.3484848,39.4444444 C37.3484848,39.7512693 37.0997542,40 36.7929293,40 L3.20707071,40 C2.90024585,40 2.65151515,39.7512693 2.65151515,39.4444444 L2.65151515,31.2324636 C1.38715507,30.9031248 0,29.5507057 0,28.172043 L0,24.3010753 C0,22.9230248 1.38734,21.5702159 2.65151515,21.2407105 L2.65151515,16.5591398 C2.65151515,13.4787909 5.33661395,11.1111111 8.54545455,11.1111111 L31.4545455,11.1111111 C34.6633861,11.1111111 37.3484848,13.4787909 37.3484848,16.5591398 L37.3484848,21.2407105 C38.61266,21.5702159 40,22.9230248 40,24.3010753 Z M36.2373737,38.8888889 L36.2373737,30.7526882 C36.2373737,30.4458633 36.4861044,30.1971326 36.7929293,30.1971326 C37.5893493,30.1971326 38.8888889,29.0985965 38.8888889,28.172043 L38.8888889,24.3010753 C38.8888889,23.3751146 37.5889598,22.2759857 36.7929293,22.2759857 C36.4861044,22.2759857 36.2373737,22.027255 36.2373737,21.7204301 L36.2373737,16.5591398 C36.2373737,14.1257303 34.0786751,12.2222222 31.4545455,12.2222222 L8.54545455,12.2222222 C5.92132494,12.2222222 3.76262626,14.1257303 3.76262626,16.5591398 L3.76262626,21.7204301 C3.76262626,22.027255 3.51389557,22.2759857 3.20707071,22.2759857 C2.41104016,22.2759857 1.11111111,23.3751146 1.11111111,24.3010753 L1.11111111,28.172043 C1.11111111,29.0985965 2.41065071,30.1971326 3.20707071,30.1971326 C3.51389557,30.1971326 3.76262626,30.4458633 3.76262626,30.7526882 L3.76262626,38.8888889 L36.2373737,38.8888889 Z" id="Stroke-7"></path>
                    <polygon id="Stroke-9" points="20.5555556 12.2222222 19.4444444 12.2222222 19.4444444 5 20.5555556 5"></polygon>
                    <path d="M21.6666667,2.77777778 C21.6666667,1.85716824 20.9206095,1.11111111 20,1.11111111 C19.0793905,1.11111111 18.3333333,1.85716824 18.3333333,2.77777778 C18.3333333,3.69838732 19.0793905,4.44444444 20,4.44444444 C20.9206095,4.44444444 21.6666667,3.69838732 21.6666667,2.77777778 Z M22.7777778,2.77777778 C22.7777778,4.31203704 21.5342593,5.55555556 20,5.55555556 C18.4657407,5.55555556 17.2222222,4.31203704 17.2222222,2.77777778 C17.2222222,1.24351852 18.4657407,0 20,0 C21.5342593,0 22.7777778,1.24351852 22.7777778,2.77777778 Z" id="Stroke-11"></path>
                </g>
            </g>
        </g>
    </g>
</svg>