<?xml version="1.0" encoding="UTF-8"?>
<svg width="72px" height="72px" viewBox="0 0 72 72" version="1.1" xmlns="http://www.w3.org/2000/svg" xmlns:xlink="http://www.w3.org/1999/xlink">
    <!-- Generator: sketchtool 53.2 (72643) - https://sketchapp.com -->
    <title>11A801A9-4FFA-46BC-A3C3-6AAE1F421A65</title>
    <desc>Created with sketchtool.</desc>
    <g id="developer.equinor.com-V-4.0" stroke="none" stroke-width="1" fill="none" fill-rule="evenodd">
        <g id="Style" transform="translate(-189.000000, -472.000000)">
            <g id="Icon_tag/Frame/Design" transform="translate(189.000000, 472.000000)">
                <circle id="Oval" stroke="#FF1243" fill="#FFFFFF" cx="36" cy="36" r="35.5"></circle>
                <g id="Group" transform="translate(16.000000, 20.000000)" fill="#FF1243">
                    <path d="M18.208279,25.625 C17.970511,25.625 17.7397894,25.5090236 17.6158466,25.3033076 L13.8357702,19.0301386 C13.7402836,18.8717155 13.7236616,18.6828779 13.7902402,18.5122556 L19.3831163,4.17229439 C19.4801386,3.92396457 19.7349803,3.75 20.0204463,3.75 L20.0212594,3.75 C20.3069964,3.75 20.5618381,3.92480013 20.6583184,4.1736313 L26.2102716,18.5094147 C26.2763083,18.6797863 26.2594152,18.8702115 26.1641093,19.0282168 L22.3840329,25.2961217 C22.2016418,25.5983455 21.7890711,25.7072196 21.4622305,25.5386026 C21.1354803,25.3699857 21.0183128,24.9885504 21.2007039,24.6863266 L24.8308202,18.6682555 L20.0180976,6.24516327 L15.1696013,18.6692582 L18.7994466,24.6930947 C18.9816571,24.995402 18.8643992,25.377088 18.5375586,25.5456214 C18.4331286,25.5994317 18.3198456,25.625 18.208279,25.625" id="Fill-1"></path>
                    <path d="M20,18.125 C19.6548333,18.125 19.375,17.8338439 19.375,17.474711 L19.375,3.77528902 C19.375,3.41615607 19.6548333,3.125 20,3.125 C20.3451667,3.125 20.625,3.41615607 20.625,3.77528902 L20.625,17.474711 C20.625,17.8338439 20.3451667,18.125 20,18.125" id="Fill-3"></path>
                    <path d="M20.0000348,18.75 C19.3107587,18.75 18.75,18.1892413 18.75,17.4999652 C18.75,16.8107587 19.3107587,16.25 20.0000348,16.25 C20.6893109,16.25 21.25,16.8107587 21.25,17.4999652 C21.25,18.1892413 20.6893109,18.75 20.0000348,18.75" id="Path"></path>
                    <path d="M24.3165228,32.5 C23.9390612,32.5 23.6330457,32.2319547 23.6330457,31.9013283 L23.6330457,28.0671949 C23.6330457,27.0361225 22.6754486,26.1973435 21.4983186,26.1973435 L18.5016814,26.1973435 C17.3246425,26.1973435 16.3669543,27.0361225 16.3669543,28.0671949 L16.3669543,31.9013283 C16.3669543,32.2319547 16.0609388,32.5 15.6834772,32.5 C15.3060155,32.5 15,32.2319547 15,31.9013283 L15,28.0671949 C15,26.3759073 16.5708128,25 18.5016814,25 L21.4983186,25 C23.4291872,25 25,26.3759073 25,28.0671949 L25,31.9013283 C25,32.2319547 24.6939845,32.5 24.3165228,32.5" id="Fill-7"></path>
                    <path d="M18.7917671,3.70823286 L21.2082329,3.70823286 L21.2082329,1.29176714 L18.7917671,1.29176714 L18.7917671,3.70823286 Z M21.8541164,5 L18.1458836,5 C17.7891836,5 17.5,4.7108164 17.5,4.35411643 L17.5,0.645883569 C17.5,0.289183603 17.7891836,0 18.1458836,0 L21.8541164,0 C22.2108164,0 22.5,0.289183603 22.5,0.645883569 L22.5,4.35411643 C22.5,4.7108164 22.2108164,5 21.8541164,5 L21.8541164,5 Z" id="Fill-9"></path>
                    <path d="M18.1338028,3.125 L1.86619718,3.125 C1.52589202,3.125 1.25,2.84516667 1.25,2.5 C1.25,2.15483333 1.52589202,1.875 1.86619718,1.875 L18.1338028,1.875 C18.474108,1.875 18.75,2.15483333 18.75,2.5 C18.75,2.84516667 18.474108,3.125 18.1338028,3.125" id="Fill-11"></path>
                    <path d="M38.1338028,3.125 L21.8661972,3.125 C21.525892,3.125 21.25,2.84516667 21.25,2.5 C21.25,2.15483333 21.525892,1.875 21.8661972,1.875 L38.1338028,1.875 C38.474108,1.875 38.75,2.15483333 38.75,2.5 C38.75,2.84516667 38.474108,3.125 38.1338028,3.125" id="Fill-11-Copy"></path>
                    <path d="M1.25003479,3.75 C0.560758719,3.75 0,3.18931086 0,2.50003479 C0,1.81075872 0.560758719,1.25 1.25003479,1.25 C1.93931086,1.25 2.5,1.81075872 2.5,2.50003479 C2.5,3.18931086 1.93931086,3.75 1.25003479,3.75" id="Path"></path>
                    <path d="M38.7500348,3.75 C38.0607587,3.75 37.5,3.18931086 37.5,2.50003479 C37.5,1.81075872 38.0607587,1.25 38.7500348,1.25 C39.4393109,1.25 40,1.81075872 40,2.50003479 C40,3.18931086 39.4393109,3.75 38.7500348,3.75" id="Path"></path>
                    <path d="M37.5055007,20 C37.163372,20 36.8860015,19.7227599 36.8860015,19.3807918 C36.8860015,11.0696144 30.6680462,4.07446086 22.4225111,3.10940426 C22.0826951,3.06960982 21.839521,2.76198719 21.8792516,2.42233086 C21.9190647,2.08267453 22.2271624,1.83920187 22.566648,1.87932656 C31.4363079,2.91753229 38.125,10.4414897 38.125,19.3807918 C38.125,19.7227599 37.8476295,20 37.5055007,20" id="Fill-15"></path>
                    <path d="M3.11373296,20 C2.77478871,20 2.5,19.7230227 2.5,19.3813789 C2.5,15.0124289 4.09889711,10.8224667 7.00209952,7.58328397 C9.88410768,4.36785626 13.8148627,2.34183079 18.0703234,1.87868976 C18.4071401,1.84165498 18.7099968,2.08761874 18.7464117,2.42736547 C18.7827447,2.76702972 18.5390518,3.07213366 18.2020714,3.10875603 C14.2466852,3.53931635 10.592601,5.42289399 7.91287924,8.41273119 C5.21392716,11.4240139 3.72746593,15.31943 3.72746593,19.3813789 C3.72746593,19.7230227 3.45267722,20 3.11373296,20" id="Fill-16"></path>
                </g>
            </g>
        </g>
    </g>
</svg>