<?xml version="1.0" encoding="UTF-8"?>
<svg width="72px" height="72px" viewBox="0 0 72 72" version="1.1" xmlns="http://www.w3.org/2000/svg" xmlns:xlink="http://www.w3.org/1999/xlink">
    <!-- Generator: sketchtool 53.2 (72643) - https://sketchapp.com -->
    <title>73DA52E1-868E-4928-9FBB-CE29CCDA334A</title>
    <desc>Created with sketchtool.</desc>
    <g id="developer.equinor.com-V-4.0" stroke="none" stroke-width="1" fill="none" fill-rule="evenodd">
        <g id="Style" transform="translate(-501.000000, -472.000000)">
            <g id="Icon_tag/Frame/Tech" transform="translate(501.000000, 472.000000)">
                <circle id="Oval" stroke="#FF1243" fill="#FFFFFF" cx="36" cy="36" r="35.5"></circle>
                <g id="Group" transform="translate(16.000000, 16.000000)" fill="#FF1243">
                    <path d="M15.1219796,20.5695283 C12.5360712,20.5695283 10.4322708,22.673265 10.4322708,25.2592681 C10.4322708,27.8451937 12.5360712,29.9489304 15.1219796,29.9489304 C17.707888,29.9489304 19.8116884,27.8451937 19.8116884,25.2592681 C19.8116884,22.673265 17.707888,20.5695283 15.1219796,20.5695283 M15.1219796,31.1128879 C11.8942693,31.1128879 9.26832107,28.4869222 9.26832107,25.2592681 C9.26832107,22.0315365 11.8942693,19.4055708 15.1219796,19.4055708 C18.3496899,19.4055708 20.9756381,22.0315365 20.9756381,25.2592681 C20.9756381,28.4869222 18.3496899,31.1128879 15.1219796,31.1128879" id="Fill-1"></path>
                    <path d="M10.3873193,33.6493425 C10.8888978,33.6493425 11.3979359,33.7460141 11.8910818,33.9440655 C13.3596544,34.5337471 14.2719175,35.8559206 14.2719175,37.3945854 L14.2719175,37.4346037 C14.2719175,38.1413584 14.8660926,38.7163666 15.5964058,38.7163666 L15.6231632,38.7163666 C16.3534764,38.7163666 16.9476515,38.1413584 16.9476515,37.4346037 L16.9476515,37.4220489 C16.9476515,35.8812656 17.8616984,34.5584643 19.3330278,33.9697243 C20.8044382,33.3811413 22.4169329,33.6931272 23.5412276,34.7840577 C23.7924223,35.0276986 24.1254295,35.1614853 24.4798427,35.1614853 L24.4806535,35.1614853 C24.835391,35.1612499 25.1685604,35.0271493 25.4187821,34.7838223 L25.4274579,34.7753478 C25.9421718,34.2747266 25.9410367,33.4623549 25.4255119,32.9638524 L25.3927545,32.9320731 C24.2672435,31.8436536 23.9461554,30.2835673 24.5548443,28.8607987 C25.1635333,27.4378732 26.5302657,26.5539393 28.1215977,26.5539393 L28.1910046,26.5539393 C28.9213179,26.5539393 29.515493,25.9789312 29.515493,25.2721764 L29.515493,25.2463607 C29.515493,24.5395275 28.9213179,23.9645193 28.1910046,23.9645193 L28.1240302,23.9645193 C26.5325361,23.9645193 25.1658036,23.080507 24.5571957,21.6574246 C23.9485068,20.2343421 24.2699192,18.6741773 25.3959167,17.5856793 L25.4162685,17.5660625 C25.9317122,17.0678738 25.9330906,16.2555021 25.4191064,15.7554302 C25.1688036,15.5120247 24.8355531,15.3778457 24.4807346,15.3776103 L24.4800048,15.3776103 C24.1254295,15.3776103 23.7923412,15.5114755 23.5419574,15.7544886 C22.4178248,16.8459684 20.8052491,17.158425 19.3335954,16.5696851 C17.8619417,15.9811021 16.9476515,14.6582223 16.9476515,13.1171251 L16.9476515,13.0839334 C16.9476515,12.3771003 16.3534764,11.8020921 15.6231632,11.8020921 L15.5964058,11.8020921 C14.8660926,11.8020921 14.2719175,12.3771003 14.2719175,13.0839334 L14.2719175,13.1459226 C14.2719175,14.6847443 13.3594922,16.0069178 11.8907575,16.5965994 C10.4221038,17.1863594 8.81050115,16.8773553 7.68490905,15.7903481 L7.63779991,15.7448371 C7.12308599,15.2478254 6.28436501,15.2471192 5.76859701,15.7436601 L5.75270477,15.7588828 C5.50183444,16.0003266 5.36310169,16.3225132 5.36261519,16.6655721 C5.36212869,17.0085526 5.49988845,17.331053 5.75059662,17.5735954 L5.76575911,17.5883472 C6.88956739,18.6759036 7.21025005,20.235833 6.60148003,21.6583662 C5.99262892,23.0808209 4.62597751,23.9645193 3.03496986,23.9645193 C2.2982511,23.9645193 1.70407599,24.5395275 1.70407599,25.2463607 L1.70407599,25.2721764 C1.70407599,25.9789312 2.2982511,26.5539393 3.02856432,26.5539393 L3.03878076,26.5539393 C4.62954516,26.5539393 5.9960344,27.4374024 6.60504767,28.8596217 C7.21397987,30.2817625 6.8937837,31.8416134 5.76932676,32.9305038 L5.74151534,32.957418 C5.49121259,33.1998035 5.35353391,33.522147 5.35402041,33.8649705 C5.3545069,34.2078725 5.49307749,34.5299022 5.74410999,34.7718168 L5.76892134,34.7955924 C6.28468934,35.2924471 7.12349141,35.2921333 7.63877291,34.7947292 L7.68555771,34.7495321 C8.43306049,34.027947 9.39527065,33.6493425 10.3873193,33.6493425 M15.6231632,39.8933757 L15.5964058,39.8933757 C14.1954564,39.8933757 13.0556748,38.7904397 13.0556748,37.4346037 L13.0556748,37.3945854 C13.0556748,36.1348718 12.213305,35.347845 11.4249365,35.0312296 C10.6366491,34.7144572 9.46589381,34.693428 8.54430616,35.5830899 L8.49752136,35.6282086 C7.50936468,36.5820568 5.90043772,36.5829984 4.91090264,35.6298564 L4.88617237,35.6060808 C4.40445917,35.1419469 4.13866959,34.5241741 4.13777768,33.8665399 C4.13688577,33.2088272 4.40097261,32.5904266 4.88138848,32.1251942 L4.90911882,32.0982799 C5.8296524,31.2070486 5.80832761,30.0736673 5.48140156,29.3101807 C5.15447552,28.5467727 4.34113347,27.7309484 3.03878076,27.7309484 L3.02856432,27.7309484 C1.62761486,27.7309484 0.487833263,26.6280124 0.487833263,25.2721764 L0.487833263,25.2463607 C0.487833263,23.8906032 1.62761486,22.7875102 3.02856432,22.7875102 C4.33756582,22.7875102 5.15090787,21.9716075 5.47775283,21.2078856 C5.8045978,20.4443206 5.82559825,19.3107823 4.9044971,18.4194726 L4.8893346,18.4047207 C4.40972956,17.9406653 4.14548055,17.3219508 4.14637246,16.6639243 C4.14734546,16.0058193 4.41337828,15.387811 4.89557798,14.9237556 L4.91138914,14.9085329 C5.90043772,13.9567249 7.50920252,13.9581373 8.49711594,14.911907 L8.54430616,14.9574965 C9.46556948,15.84708 10.6362436,15.8259723 11.4247743,15.5094353 C12.213224,15.1928983 13.0556748,14.4057931 13.0556748,13.1459226 L13.0556748,13.0839334 C13.0556748,11.7281759 14.1954564,10.625083 15.5964058,10.625083 L15.6231632,10.625083 C17.0241126,10.625083 18.1638942,11.7281759 18.1638942,13.0839334 L18.1638942,13.1171251 C18.1638942,14.3788004 19.0080477,15.1659056 19.798119,15.4819718 C20.5881092,15.7978025 21.7603239,15.8171055 22.6805332,14.9235202 C23.1607869,14.4573461 23.7998008,14.2006012 24.4800048,14.2006012 L24.4813833,14.2006012 C25.1620738,14.2009151 25.8013309,14.4583662 26.2813414,14.9254034 C27.2673899,15.8845873 27.2647953,17.4428689 26.2755845,18.3989926 L26.2552327,18.4186094 C25.3336451,19.3096053 25.3542401,20.4433789 25.681004,21.2073363 C26.0076868,21.9712152 26.8210288,22.7875102 28.1240302,22.7875102 L28.1910046,22.7875102 C29.5919541,22.7875102 30.7317357,23.8906032 30.7317357,25.2463607 L30.7317357,25.2721764 C30.7317357,26.6280124 29.5919541,27.7309484 28.1910046,27.7309484 L28.1215977,27.7309484 C26.8187585,27.7309484 26.0054165,28.547165 25.6785715,29.3109654 C25.3518887,30.0747659 25.3310504,31.2085395 26.252557,32.0996138 L26.2853955,32.1313931 C27.2741198,33.0876737 27.276309,34.6457984 26.2903416,35.6048254 L26.2815847,35.6132998 C25.8009255,36.0808078 25.1618305,36.338102 24.4813022,36.3384944 L24.4798427,36.3384944 C23.7998819,36.3384944 23.1611112,36.0819064 22.6809386,35.6160462 C21.7595942,34.7220685 20.5876227,34.7415284 19.7977136,35.0574377 C19.0078856,35.3735038 18.1638942,36.160609 18.1638942,37.4220489 L18.1638942,37.4346037 C18.1638942,38.7904397 17.0241126,39.8933757 15.6231632,39.8933757" id="Fill-3"></path>
                    <path d="M29.2683211,9.93697404 C28.6199131,9.93697404 28.092429,10.4645332 28.092429,11.11293 C28.092429,11.7613267 28.6199131,12.2888017 29.2683211,12.2888017 C29.916729,12.2888017 30.4442131,11.7613267 30.4442131,11.11293 C30.4442131,10.4645332 29.916729,9.93697404 29.2683211,9.93697404 M29.2683211,13.5519123 C27.9234219,13.5519123 26.8292967,12.4578059 26.8292967,11.11293 C26.8292967,9.76796985 27.9234219,8.67386348 29.2683211,8.67386348 C30.6132202,8.67386348 31.7073455,9.76796985 31.7073455,11.11293 C31.7073455,12.4578059 30.6132202,13.5519123 29.2683211,13.5519123" id="Fill-6"></path>
                    <path d="M29.2771784,21.3567903 L29.2593836,21.3567903 C28.2199119,21.3567903 27.374259,20.5110573 27.374259,19.4715855 L27.374259,19.444172 C27.374259,19.0853907 27.2631618,18.7541833 27.0530712,18.4862997 C26.8481106,18.2251493 26.8937999,17.8472907 27.1549503,17.6423301 C27.4161809,17.4372894 27.7941196,17.4828985 27.9990802,17.7442894 C28.3768586,18.2257905 28.5766091,18.8136596 28.5766091,19.444172 L28.5766091,19.4715855 C28.5766091,19.8481616 28.8828877,20.1544402 29.2593836,20.1544402 L29.2771784,20.1544402 C29.6536743,20.1544402 29.9600331,19.8481616 29.9600331,19.4715855 L29.9600331,19.4630088 C29.9600331,18.3239023 30.6139512,17.3459108 31.6666488,16.91066 C32.7177432,16.4760506 33.8694343,16.7054589 34.6737263,17.5090296 C34.6751691,17.5104724 34.676612,17.5118351 34.6779746,17.5132779 C34.8070269,17.6426508 34.9787225,17.71391 35.1614797,17.71391 L35.1618003,17.71391 C35.3447178,17.7138299 35.5164134,17.6423301 35.6454657,17.5127168 L35.6501147,17.5079074 C35.9167158,17.240104 35.9160746,16.8073381 35.6503552,16.541779 L35.6280717,16.5194955 C34.8232987,15.7152836 34.5935696,14.5619092 35.0290608,13.5099331 C35.464552,12.4580371 36.4423833,11.8045999 37.5808485,11.8045999 L37.6270187,11.8045999 C38.0035146,11.8045999 38.3098734,11.4983212 38.3098734,11.1218253 L38.3098734,11.1040306 C38.3098734,10.7275347 38.0035146,10.4211759 37.6270187,10.4211759 L37.5825318,10.4211759 C36.4439063,10.4211759 35.466075,9.76765852 35.030664,8.7156022 C34.5951728,7.66354588 34.8250621,6.51001122 35.6307168,5.70531839 L35.6450649,5.6910505 C35.9099025,5.42645333 35.9105438,4.9936073 35.645626,4.72724668 C35.5165737,4.59755318 35.344798,4.52605343 35.1619606,4.52597327 L35.1615598,4.52597327 C34.9787225,4.52597327 34.8069467,4.59731271 34.6778945,4.72676574 C33.8735223,5.53370295 32.7199876,5.76455417 31.6669694,5.32946375 C30.6141115,4.89429318 29.9600331,3.91630163 29.9600331,2.77703485 L29.9600331,2.7541902 C29.9600331,2.37769431 29.6536743,2.07133551 29.2771784,2.07133551 L29.2593836,2.07133551 C28.8828877,2.07133551 28.5766091,2.37769431 28.5766091,2.7541902 L28.5766091,2.79675339 C28.5766091,3.93441704 27.9238131,4.91192765 26.8729592,5.34781963 C25.8221052,5.78379177 24.6692118,5.5552651 23.8638777,4.75177462 L23.8331777,4.72115477 C23.567298,4.45583619 23.1348528,4.4554354 22.8689731,4.71995242 L22.8591138,4.72973153 C22.7291798,4.85902425 22.6576801,5.03055952 22.6574396,5.21331674 C22.6571992,5.39607395 22.728218,5.5678497 22.8575107,5.69722256 L22.865847,5.7054787 C23.671662,6.51121357 23.9010704,7.66458792 23.465499,8.71624346 C23.0299277,9.76789899 22.0521766,10.4211759 20.9138717,10.4211759 C20.5331275,10.4211759 20.2267687,10.7275347 20.2267687,11.1040306 L20.2267687,11.1218253 C20.2267687,11.4983212 20.5331275,11.8045999 20.9096234,11.8045999 C21.7230533,11.8045999 22.4556853,12.1314788 22.9792687,12.7249588 C23.1988979,12.9740056 23.1751716,13.353868 22.9262049,13.5734973 C22.6771582,13.7932869 22.2972957,13.7694002 22.0776664,13.5204336 C21.7855755,13.1893064 21.3731694,13.0069499 20.9163566,13.0069499 C19.8701517,13.0069499 19.0244186,12.1612169 19.0244186,11.1218253 L19.0244186,11.1040306 C19.0244186,10.0645588 19.8701517,9.21882579 20.9096234,9.21882579 C21.6821734,9.21882579 22.1618309,8.7215338 22.3546879,8.25614416 C22.5473845,7.79067437 22.5598088,7.09980401 22.0165069,6.55658224 L22.0081706,6.54824595 C21.6505115,6.19050672 21.4543681,5.71613954 21.4550895,5.21155329 C21.455811,4.7070472 21.6532368,4.23332126 22.0109761,3.87758595 L22.0208353,3.86772668 C22.7553911,3.13725893 23.9490041,3.13814066 24.682117,3.8697306 L24.7128972,3.90035045 C25.25668,4.44293096 25.9472298,4.43010589 26.4122988,4.23724894 C26.8773678,4.04439199 27.374259,3.56457415 27.374259,2.79675339 L27.374259,2.7541902 C27.374259,1.71471848 28.2199119,0.86898543 29.2593836,0.86898543 L29.2771784,0.86898543 C30.3166501,0.86898543 31.1623831,1.71471848 31.1623831,2.7541902 L31.1623831,2.77703485 C31.1623831,3.5459778 31.6602362,4.02571548 32.126187,4.21833197 C32.5920575,4.41078814 33.283489,4.42249101 33.82631,3.87790658 C34.1826865,3.52048798 34.6568934,3.3236232 35.1615598,3.3236232 L35.1625217,3.3236232 C35.6675889,3.32394382 36.1418759,3.52128955 36.498012,3.8793494 C37.229602,4.61486702 37.2276782,5.80960222 36.4937637,6.54271514 L36.4794157,6.55698303 C35.9366748,7.0990826 35.9488587,7.79019343 36.1415553,8.25582353 C36.3343321,8.72129333 36.8139896,9.21882579 37.5825318,9.21882579 L37.6270187,9.21882579 C38.6664905,9.21882579 39.5122235,10.0645588 39.5122235,11.1040306 L39.5122235,11.1218253 C39.5122235,12.1612169 38.6664905,13.0069499 37.6270187,13.0069499 L37.5808485,13.0069499 C36.8124666,13.0069499 36.332729,13.5044023 36.1400323,13.9699522 C35.9472555,14.435422 35.9349916,15.1263725 36.4785339,15.6695943 L36.5008175,15.6917977 C37.2339304,16.4245098 37.2356137,17.6191649 36.5040238,18.354442 L36.4992945,18.3592514 C36.1416355,18.7186739 35.6674286,18.9160196 35.1625217,18.9162601 L35.1613995,18.9162601 C34.658737,18.9162601 34.1863738,18.7209183 33.8304781,18.3660647 C33.8289552,18.3646219 33.8275123,18.3631791 33.8260695,18.3617363 C33.2831684,17.8175526 32.5919774,17.8291753 32.1260267,18.021872 C31.6601561,18.2144885 31.1623831,18.694146 31.1623831,19.4630088 L31.1623831,19.4715855 C31.1623831,20.5110573 30.3166501,21.3567903 29.2771784,21.3567903" id="Fill-8"></path>
                </g>
            </g>
        </g>
    </g>
</svg>