<?xml version="1.0" encoding="UTF-8"?>
<svg width="51px" height="60px" viewBox="0 0 51 60" version="1.1" xmlns="http://www.w3.org/2000/svg" xmlns:xlink="http://www.w3.org/1999/xlink">
    <!-- Generator: sketchtool 53.2 (72643) - https://sketchapp.com -->
    <title>2FFCEFFC-1621-4760-9142-47FF5BF126DD</title>
    <desc>Created with sketchtool.</desc>
    <g id="developer.equinor.com-V-4.0" stroke="none" stroke-width="1" fill="none" fill-rule="evenodd">
        <g id="Toolbox" transform="translate(-1183.000000, -450.000000)">
            <g id="Group-7-Copy-2" transform="translate(1060.000000, 424.000000)">
                <g id="Ikon60x60/Document" transform="translate(123.000000, 26.000000)">
                    <g id="Document-copy">
                        <path d="M10.6132075,28.1603774 C10.6132075,26.9880849 11.563546,26.0377358 12.7358491,26.0377358 L38.2075472,26.0377358 C39.3798821,26.0377358 40.3301887,26.9880849 40.3301887,28.1603774 C40.3301887,29.3326698 39.3798821,30.2830189 38.2075472,30.2830189 L12.7358491,30.2830189 C11.563546,30.2830189 10.6132075,29.3326698 10.6132075,28.1603774 Z" id="Shape" fill="#FF1243" fill-rule="nonzero"></path>
                        <path d="M10.6132075,36.6509434 C10.6132075,35.4786509 11.563546,34.5283019 12.7358491,34.5283019 L21.2264151,34.5283019 C22.3987075,34.5283019 23.3490566,35.4786509 23.3490566,36.6509434 C23.3490566,37.8232358 22.3987075,38.7735849 21.2264151,38.7735849 L12.7358491,38.7735849 C11.563546,38.7735849 10.6132075,37.8232358 10.6132075,36.6509434 Z" id="Shape" fill="#FF1243" fill-rule="nonzero"></path>
                        <path d="M27.5943396,36.6509434 C27.5943396,35.4786509 28.5446887,34.5283019 29.7169811,34.5283019 C30.8892736,34.5283019 31.8396226,35.4786509 31.8396226,36.6509434 C31.8396226,37.8232358 30.8892736,38.7735849 29.7169811,38.7735849 C28.5446887,38.7735849 27.5943396,37.8232358 27.5943396,36.6509434 Z" id="Shape" fill="#FF1243" fill-rule="nonzero"></path>
                        <path d="M10.6132075,19.6698113 C10.6132075,18.4975083 11.563546,17.5471698 12.7358491,17.5471698 L21.2264151,17.5471698 C22.3987075,17.5471698 23.3490566,18.4975083 23.3490566,19.6698113 C23.3490566,20.8421038 22.3987075,21.7924528 21.2264151,21.7924528 L12.7358491,21.7924528 C11.563546,21.7924528 10.6132075,20.8421038 10.6132075,19.6698113 Z" id="Shape" fill="#FF1243" fill-rule="nonzero"></path>
                        <path d="M29.3493396,0.565974057 C31.7118396,0.564106132 33.4322406,1.27682547 35.1014858,2.94863915 L48.5607311,16.4078844 C50.2327358,18.0771297 50.9453066,19.7975307 50.9433962,22.1602429 L50.9433962,51.5813278 C50.9433962,57.2197005 48.1578538,60.0001486 42.5207547,59.9999363 L8.42268396,59.9999363 C2.78560613,60.0001486 0,57.2197005 0,51.5813278 L0,8.98475236 C0,3.34701651 2.78490566,0.565931604 8.42158019,0.566037736 L29.3493396,0.565974057 Z M29.7169811,4.81276415 L29.7169811,15.4244646 C29.7169811,18.9414693 32.5679009,21.7923892 36.0849057,21.7923892 L46.6966274,21.7923892 C46.769434,31.6968467 46.6981132,41.6047005 46.6981132,51.5093703 C46.6981132,55.0422948 45.9857547,55.7546533 42.4528302,55.7546533 L8.49056604,55.7546533 C4.95774764,55.7546533 4.24528302,55.0422948 4.24528302,51.5093703 L4.24528302,9.05660377 C4.24528302,5.5238066 4.95776887,4.81132075 8.49056604,4.81132075 C15.5654575,4.81132075 22.642217,4.76243632 29.7169811,4.81276415 Z M33.9622642,7.81320283 L43.6962736,17.5471061 L36.0849057,17.5471061 C34.9125708,17.5471061 33.9622642,16.5967995 33.9622642,15.4244646 L33.9622642,7.81320283 Z" id="Shape" fill="#007079"></path>
                    </g>
                </g>
            </g>
        </g>
    </g>
</svg>