<?xml version="1.0" encoding="UTF-8"?>
<svg width="56px" height="43px" viewBox="0 0 56 43" version="1.1" xmlns="http://www.w3.org/2000/svg" xmlns:xlink="http://www.w3.org/1999/xlink">
    <!-- Generator: sketchtool 53.2 (72643) - https://sketchapp.com -->
    <title>0977E213-07F9-404F-B47D-D520CEB12A0B</title>
    <desc>Created with sketchtool.</desc>
    <g id="developer.equinor.com-V-4.0" stroke="none" stroke-width="1" fill="none" fill-rule="evenodd">
        <g id="Style" transform="translate(-301.000000, -596.000000)" fill="#FF1243">
            <g id="Icon_tag/OpenSource" transform="translate(301.000000, 589.000000)">
                <g id="Group" transform="translate(-0.000024, 7.000000)">
                    <path d="M4.57888608,1.77445564 C3.03120675,1.77445564 1.7721519,3.03514722 1.7721519,4.58483848 L1.7721519,38.1667663 C1.7721519,39.7163393 3.03120675,40.9771492 4.57888608,40.9771492 L51.3996118,40.9771492 C52.947173,40.9771492 54.206346,39.7163393 54.206346,38.1667663 L54.206346,4.58483848 C54.206346,3.03514722 52.947173,1.77445564 51.3996118,1.77445564 L4.57888608,1.77445564 Z M51.3996118,42.7516048 L4.57888608,42.7516048 C2.05416034,42.7516048 4.26325641e-14,40.6947741 4.26325641e-14,38.1667663 L4.26325641e-14,4.58483848 C4.26325641e-14,2.05671238 2.05416034,0 4.57888608,0 L51.3996118,0 C53.9243376,0 55.9784979,2.05671238 55.9784979,4.58483848 L55.9784979,38.1667663 C55.9784979,40.6947741 53.9243376,42.7516048 51.3996118,42.7516048 L51.3996118,42.7516048 Z" id="Fill-1"></path>
                    <path d="M51.0000236,10.6339104 L5.82355304,10.6339104 C5.33614128,10.6339104 4.9412001,10.2651889 4.9412001,9.81038102 C4.9412001,9.35557318 5.33614128,8.98685161 5.82355304,8.98685161 L51.0000236,8.98685161 C51.4874354,8.98685161 51.8823766,9.35557318 51.8823766,9.81038102 C51.8823766,10.2651889 51.4874354,10.6339104 51.0000236,10.6339104" id="Fill-4"></path>
                    <path d="M7.41184733,7.33979279 C6.50362569,7.33979279 5.76472951,6.6008966 5.76472951,5.69279296 C5.76472951,4.78457132 6.50362569,4.04567514 7.41184733,4.04567514 C8.31995098,4.04567514 9.05884716,4.78457132 9.05884716,5.69279296 C9.05884716,6.6008966 8.31995098,7.33979279 7.41184733,7.33979279" id="Path"></path>
                    <path d="M12.3530238,7.33979279 C11.4448022,7.33979279 10.705906,6.6008966 10.705906,5.69279296 C10.705906,4.78457132 11.4448022,4.04567514 12.3530238,4.04567514 C13.2611274,4.04567514 14.0000236,4.78457132 14.0000236,5.69279296 C14.0000236,6.6008966 13.2611274,7.33979279 12.3530238,7.33979279" id="Path"></path>
                    <path d="M17.2930155,7.33979279 C17.1260687,7.33979279 16.9565262,7.31418937 16.7892253,7.2603868 C15.9251131,6.9820529 15.4482232,6.05242476 15.7264286,5.18804402 C16.00487,4.3235453 16.9344632,3.84675544 17.7989294,4.12508934 C18.6632776,4.40342324 19.1400495,5.33316937 18.8618441,6.19743212 C18.8617261,6.19755011 18.8617261,6.19766809 18.8617261,6.19766809 C18.6372032,6.89485971 17.9888831,7.33979279 17.2930155,7.33979279 L17.2930155,7.33979279 Z" id="Path"></path>
                    <path d="M21.3880859,32.8692045 C21.1770952,32.8692045 20.9657657,32.7876794 20.8015363,32.6238069 L14.2604864,26.092986 C14.094111,25.9268815 14.0000236,25.6973424 14.0000236,25.4574659 C14.0000236,25.2175893 14.094111,24.9880503 14.2604864,24.8218283 L20.8015363,18.2911249 C21.1389181,17.954217 21.6753179,17.9654942 21.9992586,18.3166162 C22.3233123,18.6675031 22.3123561,19.2253747 21.9748614,19.5622826 L16.0703979,25.4574659 L21.9748614,31.3525317 C22.3123561,31.689557 22.3233123,32.2473111 21.9992586,32.5983156 C21.8328832,32.7785167 21.6107105,32.8692045 21.3880859,32.8692045" id="Fill-12"></path>
                    <path d="M34.6119613,32.8692045 C34.3893368,32.8692045 34.1671641,32.7785167 34.0007887,32.5983156 C33.676735,32.2473111 33.6876911,31.689557 34.0251859,31.3525317 L39.9296493,25.4574659 L34.0251859,19.5622826 C33.6876911,19.2253747 33.676735,18.6675031 34.0007887,18.3166162 C34.3248423,17.9654942 34.8610162,17.954217 35.1985109,18.2911249 L41.7395608,24.8218283 C41.9059362,24.9880503 42.0000236,25.2175893 42.0000236,25.4574659 C42.0000236,25.6973424 41.9059362,25.9268815 41.7395608,26.092986 L35.1985109,32.6238069 C35.0342815,32.7876794 34.822952,32.8692045 34.6119613,32.8692045" id="Fill-14"></path>
                    <path d="M23.975415,32.8692045 C23.8302482,32.8692045 23.6830023,32.8360784 23.5459071,32.7660671 C23.0985438,32.5378255 22.9285506,32.0044004 23.1662965,31.5747 L30.3902721,18.5135959 C30.6278957,18.0838956 31.1833698,17.9204967 31.6306108,18.1488557 C32.0779741,18.3770973 32.2479672,18.9105224 32.0102214,19.3402228 L24.7862457,32.4013269 C24.621389,32.6993449 24.3039054,32.8692045 23.975415,32.8692045" id="Fill-16"></path>
                </g>
            </g>
        </g>
    </g>
</svg>