<?xml version="1.0" encoding="UTF-8"?>
<svg width="46px" height="56px" viewBox="0 0 46 56" version="1.1" xmlns="http://www.w3.org/2000/svg" xmlns:xlink="http://www.w3.org/1999/xlink">
    <!-- Generator: sketchtool 53.2 (72643) - https://sketchapp.com -->
    <title>0F7EF535-A01E-4227-8CBC-4549830909D4</title>
    <desc>Created with sketchtool.</desc>
    <g id="developer.equinor.com-V-4.0" stroke="none" stroke-width="1" fill="none" fill-rule="evenodd">
        <g id="Style" transform="translate(-410.000000, -589.000000)" fill="#FF1243">
            <g id="Icon_tag/Security" transform="translate(405.000000, 589.000000)">
                <g id="Group" transform="translate(5.444467, -0.706505)">
                    <path d="M4.26462066,8.67410664 L4.26462066,9.44944466 C3.42797053,9.44944466 2.77392795,9.49824158 2.33227641,9.58935943 C1.85624999,9.6874773 1.53048003,10.1144635 1.55683533,10.6129617 L2.8250458,32.4626992 C3.10187743,37.9147061 5.77139741,42.8532411 10.145607,46.0179359 L22.5557661,54.804505 L34.9656353,46.0179913 C39.3402553,42.8530785 42.0095646,37.9144301 42.2863578,32.4627926 L43.554156,10.6209074 C43.5799034,10.1344873 43.2394192,9.69072886 42.7747302,9.59647364 C42.3750451,9.51552121 41.793812,9.47207727 41.0579065,9.47207727 C40.9112383,9.47207727 40.7607221,9.47376991 40.606468,9.47713436 C40.4425599,9.48068472 40.277192,9.4824459 40.1107951,9.4824459 C35.4111104,9.48256134 30.9153341,8.06304127 27.1146132,5.37823509 L22.8079959,2.33612006 C22.7338478,2.28380328 22.6501734,2.25718109 22.5612758,2.25718109 C22.4719223,2.25718109 22.3879948,2.28404039 22.3138451,2.33678066 L18.1328596,5.31023724 C14.3172217,8.02386114 9.85248516,9.45958625 5.22584641,9.45970181 C5.07310995,9.45970181 4.9202659,9.45808262 4.76796507,9.45485788 C4.59187372,9.45127651 4.42451357,9.44944466 4.26462066,9.44944466 L4.26462066,8.67410664 Z M4.26462066,8.67410664 L4.26462066,7.89876862 C4.43552419,7.89876862 4.61339932,7.90071555 4.80034507,7.90451796 C4.94229211,7.90752321 5.08412558,7.90902576 5.22582692,7.90902576 C9.5273496,7.90891833 13.6765066,6.57467411 17.2294348,4.04788541 L21.4103854,1.07445363 C21.7478549,0.834422472 22.1475598,0.706505051 22.5612758,0.706505051 C22.972629,0.706505051 23.3701961,0.83299665 23.7070194,1.07064961 L28.0139855,4.11301092 C31.551138,6.61163395 35.7324944,7.9318774 40.110776,7.93176986 C40.2660183,7.93176986 40.4201246,7.93012861 40.5725583,7.92682681 C40.737864,7.9232213 40.8997121,7.92140123 41.0579065,7.92140123 C41.889072,7.92140123 42.5672504,7.97209129 43.0846726,8.07689028 C44.3083546,8.32509583 45.1737005,9.4529145 45.1073323,10.70655 L43.8396205,32.5467695 C43.5394208,38.4598486 40.6359817,43.8316746 35.8728556,47.2776103 L22.555775,56.7065051 L22.1053952,56.3876298 L9.23839068,47.2775577 C4.4756911,43.8318492 1.57202607,38.4601525 1.2717834,32.5466812 L0.00365727429,10.698571 C-0.0631488235,9.43545452 0.784078552,8.32499482 2.0171597,8.07083395 C2.57927916,7.95486215 3.33112093,7.89876862 4.26462066,7.89876862 L4.26462066,8.67410664 Z" id="Path"></path>
                    <path d="M21.0144271,32.9287273 C20.8124523,32.9287273 20.6181115,32.849394 20.4745916,32.7071561 L17.3347116,29.5953247 C17.0365479,29.2998245 17.0365479,28.8207985 17.3347116,28.5252982 C17.6328753,28.2299061 18.116219,28.2299061 18.4143827,28.5252982 L20.9533548,31.0416978 L26.4199806,24.3216075 C26.6846636,23.9961681 27.1650627,23.9452608 27.4934354,24.2074713 C27.8216991,24.4696819 27.8732834,24.9460058 27.6086004,25.271337 L21.6086825,32.6470617 C21.4727966,32.8141588 21.2714761,32.9161896 21.0552147,32.9276464 C21.0415825,32.928403 21.0279503,32.9287273 21.0144271,32.9287273" id="Fill-6"></path>
                    <path d="M22.5555333,38.8176162 C28.5693005,38.8176162 33.4444222,33.9424945 33.4444222,27.9287273 C33.4444222,21.91496 28.5693005,17.0398384 22.5555333,17.0398384 C16.541766,17.0398384 11.6666444,21.91496 11.6666444,27.9287273 C11.6666444,33.9424945 16.541766,38.8176162 22.5555333,38.8176162 Z M22.5555333,40.3731717 C15.6826564,40.3731717 10.1110888,34.8016042 10.1110888,27.9287273 C10.1110888,21.0558504 15.6826564,15.4842828 22.5555333,15.4842828 C29.4284102,15.4842828 34.9999777,21.0558504 34.9999777,27.9287273 C34.9999777,34.8016042 29.4284102,40.3731717 22.5555333,40.3731717 Z" id="Oval"></path>
                </g>
            </g>
        </g>
    </g>
</svg>