<?xml version="1.0" encoding="UTF-8"?>
<svg width="56px" height="56px" viewBox="0 0 56 56" version="1.1" xmlns="http://www.w3.org/2000/svg" xmlns:xlink="http://www.w3.org/1999/xlink">
    <!-- Generator: sketchtool 53.2 (72643) - https://sketchapp.com -->
    <title>75C5B135-BC92-4BCC-9CF0-537198116669</title>
    <desc>Created with sketchtool.</desc>
    <g id="developer.equinor.com-V-4.0" stroke="none" stroke-width="1" fill="none" fill-rule="evenodd">
        <g id="Style" transform="translate(-509.000000, -589.000000)" fill="#FF1243">
            <g id="Icon_tag/Tech" transform="translate(509.000000, 589.000000)">
                <g id="Group" transform="translate(-0.000023, 0.085003)">
                    <path d="M20.6956748,27.5804971 C16.9311169,27.5804971 13.8684104,30.643111 13.8684104,34.4078068 C13.8684104,38.1723897 16.9311169,41.2350036 20.6956748,41.2350036 C24.4602327,41.2350036 27.5229392,38.1723897 27.5229392,34.4078068 C27.5229392,30.643111 24.4602327,27.5804971 20.6956748,27.5804971 M20.6956748,42.9294895 C15.9967835,42.9294895 12.1739357,39.1066163 12.1739357,34.4078068 C12.1739357,29.7088844 15.9967835,25.8860112 20.6956748,25.8860112 C25.3945661,25.8860112 29.2174139,29.7088844 29.2174139,34.4078068 C29.2174139,39.1066163 25.3945661,42.9294895 20.6956748,42.9294895" id="Fill-1"></path>
                    <path d="M13.8139252,46.9115005 C14.513837,46.9115005 15.2241582,47.0508945 15.9123031,47.3364712 C17.9615763,48.1867522 19.234565,50.093237 19.234565,52.3118875 L19.234565,52.3695912 C19.234565,53.3886837 20.0636879,54.2178066 21.0827804,54.2178066 L21.1201181,54.2178066 C22.1392106,54.2178066 22.9683335,53.3886837 22.9683335,52.3695912 L22.9683335,52.3514881 C22.9683335,50.1297827 24.2438115,48.2223927 26.2969316,47.3734695 C28.3501648,46.5247726 30.6002695,46.9746351 32.1691311,48.5476831 C32.5196528,48.8989968 32.9843373,49.0919082 33.4788919,49.0919082 L33.4800233,49.0919082 C33.9750305,49.0915687 34.4399413,48.8982048 34.7891052,48.5473437 L34.8012116,48.5351241 C35.5194529,47.8132622 35.5178689,46.6418771 34.7984962,45.9230701 L34.7527858,45.8772466 C33.182227,44.3078193 32.7341748,42.0582803 33.5835505,40.0067442 C34.4329263,37.9549819 36.34009,36.6804091 38.5606639,36.6804091 L38.6575156,36.6804091 C39.6766082,36.6804091 40.505731,35.8512862 40.505731,34.8321937 L40.505731,34.7949691 C40.505731,33.7757635 39.6766082,32.9466406 38.6575156,32.9466406 L38.5640583,32.9466406 C36.343258,32.9466406 34.4360943,31.6719546 33.5868317,29.619966 C32.737456,27.5679773 33.1859608,25.3183252 34.7571984,23.7487847 L34.7855977,23.7204986 C35.5048573,23.0021442 35.5067807,21.8307591 34.7895578,21.1096892 C34.4402807,20.758715 33.9752568,20.5652379 33.4801365,20.5648985 L33.4791182,20.5648985 C32.9843373,20.5648985 32.5195397,20.757923 32.1701494,21.1083315 C30.6015141,22.6821715 28.3512963,23.1327129 26.2977236,22.2837897 C24.2441509,21.4350928 22.9683335,19.5275897 22.9683335,17.3054317 L22.9683335,17.2575716 C22.9683335,16.2383659 22.1392106,15.409243 21.1201181,15.409243 L21.0827804,15.409243 C20.0636879,15.409243 19.234565,16.2383659 19.234565,17.2575716 L19.234565,17.3469557 C19.234565,19.5658325 17.96135,21.4723174 15.9118505,22.3225983 C13.8624642,23.1729924 11.6136041,22.7274293 10.0429321,21.1600385 L9.97719517,21.0944147 C9.25895388,20.3777575 8.08858717,20.3767392 7.368875,21.0927176 L7.34669868,21.1146676 C6.9966296,21.4628132 6.80303936,21.9273845 6.80236049,22.4220523 C6.80168163,22.9166069 6.99391413,23.3816308 7.34375693,23.7313605 L7.36491495,23.7526316 C8.93309772,25.3208144 9.38058422,27.5701271 8.53109531,29.6213237 C7.68149326,31.6724072 5.77444271,32.9466406 3.55432133,32.9466406 C2.5262904,32.9466406 1.6971675,33.7757635 1.6971675,34.7949691 L1.6971675,34.8321937 C1.6971675,35.8512862 2.5262904,36.6804091 3.54538291,36.6804091 L3.55963912,36.6804091 C5.77942107,36.6804091 7.68624533,37.954303 8.53607367,40.0050471 C9.38578886,42.055678 8.93898123,44.3048775 7.36989331,45.8749837 L7.33108474,45.9137923 C6.98180767,46.2632956 6.78968831,46.7280933 6.79036718,47.2224216 C6.79104604,47.716863 6.98440999,48.1812081 7.33470537,48.5300326 L7.36932758,48.5643153 C8.08903975,49.2807463 9.2595196,49.2802937 9.9785529,48.5630708 L10.0438373,48.4978995 C11.0869164,47.4574227 12.4296022,46.9115005 13.8139252,46.9115005 M21.1201181,55.9149741 L21.0827804,55.9149741 C19.1278698,55.9149741 17.5373975,54.324615 17.5373975,52.3695912 L17.5373975,52.3118875 C17.5373975,50.4954657 16.3619393,49.3606263 15.2618353,48.9040883 C14.1618445,48.4473239 12.5281511,48.4170012 11.2421507,49.6998336 L11.1768663,49.7648916 C9.79797428,51.1402762 7.55284796,51.1416339 6.17203248,49.7672677 L6.13752341,49.7329849 C5.46533193,49.0637352 5.09444426,48.1729485 5.09319967,47.2246845 C5.09195508,46.2763073 5.46046672,45.3846155 6.13084788,44.7137817 L6.1695433,44.6749732 C7.45407281,43.3898779 7.42431581,41.7556188 6.96811719,40.6547228 C6.51191856,39.5539399 5.37696608,38.3775766 3.55963912,38.3775766 L3.54538291,38.3775766 C1.59047224,38.3775766 3.19744231e-14,36.7872175 3.19744231e-14,34.8321937 L3.19744231e-14,34.7949691 C3.19744231e-14,32.8400584 1.59047224,31.2494731 3.54538291,31.2494731 C5.37198772,31.2494731 6.5069402,30.0729965 6.96302568,28.9717611 C7.41911116,27.870752 7.44841559,26.2362665 6.16309407,24.9510582 L6.14193605,24.929787 C5.47268633,24.2606504 5.1039484,23.368506 5.10519299,22.4196763 C5.10655072,21.4707333 5.47777783,20.5796073 6.15064817,19.9104707 L6.17271135,19.8885207 C7.55284796,18.5160779 9.79774799,18.5181145 11.1763006,19.8933859 L11.2421507,19.9591228 C12.5276985,21.241842 14.1612788,21.2114062 15.261609,20.7549812 C16.3618262,20.2985563 17.5373975,19.1636038 17.5373975,17.3469557 L17.5373975,17.2575716 C17.5373975,15.3026609 19.1278698,13.7120755 21.0827804,13.7120755 L21.1201181,13.7120755 C23.0750288,13.7120755 24.665501,15.3026609 24.665501,17.2575716 L24.665501,17.3054317 C24.665501,19.1246821 25.8434484,20.2596346 26.9459284,20.7153807 C28.0482953,21.1707873 29.6840253,21.1986208 30.9681023,19.9101313 C31.6382571,19.2379398 32.5299489,18.867731 33.4791182,18.867731 L33.4810416,18.867731 C34.4308897,18.8681836 35.3229209,19.2394107 35.9927364,19.9128467 C37.3686866,21.2959251 37.365066,23.5428617 35.9847031,24.9215275 L35.9563038,24.9498136 C34.6703035,26.2345694 34.6990422,27.8693943 35.1550145,28.9709691 C35.6108737,30.0724308 36.7458262,31.2494731 38.5640583,31.2494731 L38.6575156,31.2494731 C40.6124263,31.2494731 42.2028986,32.8400584 42.2028986,34.7949691 L42.2028986,34.8321937 C42.2028986,36.7872175 40.6124263,38.3775766 38.6575156,38.3775766 L38.5606639,38.3775766 C36.7426581,38.3775766 35.6077056,39.5545057 35.1516202,40.6558542 C34.695761,41.7572028 34.6666828,43.3920277 35.9525701,44.6768966 L35.9983936,44.7227201 C37.3780776,46.1016122 37.3811325,48.3483225 36.0052954,49.7311746 L35.9930758,49.7433942 C35.3223552,50.4175091 34.4305503,50.7885099 33.4809285,50.7890757 L33.4788919,50.7890757 C32.5300621,50.7890757 31.6387097,50.4190931 30.968668,49.7473542 C29.683007,48.458299 28.0476164,48.4863588 26.9453627,48.9418785 C25.8432221,49.3976246 24.665501,50.5325771 24.665501,52.3514881 L24.665501,52.3695912 C24.665501,54.324615 23.0750288,55.9149741 21.1201181,55.9149741" id="Fill-3"></path>
                    <path d="M40.5797328,12.958534 C39.7166924,12.958534 39.0146034,13.6607229 39.0146034,14.5237484 C39.0146034,15.3867739 39.7166924,16.0888507 40.5797328,16.0888507 C41.4427731,16.0888507 42.1448621,15.3867739 42.1448621,14.5237484 C42.1448621,13.6607229 41.4427731,12.958534 40.5797328,12.958534 M40.5797328,17.7700692 C38.7896525,17.7700692 37.333356,16.3137977 37.333356,14.5237484 C37.333356,12.733587 38.7896525,11.2773156 40.5797328,11.2773156 C42.369813,11.2773156 43.8261096,12.733587 43.8261096,14.5237484 C43.8261096,16.3137977 42.369813,17.7700692 40.5797328,17.7700692" id="Fill-6"></path>
                    <path d="M40.5870655,29.0578894 L40.5618272,29.0578894 C39.0875426,29.0578894 37.8881517,27.8583847 37.8881517,26.3841002 L37.8881517,26.3452194 C37.8881517,25.8363593 37.7305824,25.3666073 37.4326105,24.9866676 C37.1419145,24.6162774 37.2067157,24.08036 37.5771058,23.789664 C37.9476096,23.4988543 38.4836407,23.5635419 38.7743367,23.9342731 C39.3101405,24.6171869 39.5934469,25.4509626 39.5934469,26.3452194 L39.5934469,26.3841002 C39.5934469,26.9181986 40.0278424,27.3525941 40.5618272,27.3525941 L40.5870655,27.3525941 C41.1210503,27.3525941 41.5555595,26.9181986 41.5555595,26.3841002 L41.5555595,26.3719357 C41.5555595,24.756339 42.4830128,23.3692519 43.9760556,22.751935 C45.4668246,22.1355277 47.1002701,22.460898 48.2409989,23.6006036 C48.2430452,23.60265 48.2450916,23.6045826 48.2470243,23.606629 C48.4300593,23.7901188 48.6735754,23.8911859 48.9327803,23.8911859 L48.9332351,23.8911859 C49.1926673,23.8910722 49.4361835,23.789664 49.6192185,23.6058332 L49.6258123,23.599012 C50.0039331,23.2191859 50.0030236,22.6053933 49.6261533,22.2287505 L49.5945485,22.1971457 C48.4531376,21.0565305 48.1273125,19.4206977 48.7449705,17.9286781 C49.3626284,16.4367721 50.7494881,15.510001 52.3641753,15.510001 L52.4296587,15.510001 C52.9636434,15.510001 53.3981527,15.0756055 53.3981527,14.5416207 L53.3981527,14.5163823 C53.3981527,13.9823976 52.9636434,13.5478883 52.4296587,13.5478883 L52.3665628,13.5478883 C50.7516482,13.5478883 49.3647884,12.6210036 48.7472442,11.1288702 C48.1295863,9.63673693 48.4556387,8.0006767 49.5983002,6.85937946 L49.61865,6.83914329 C49.9942697,6.46386466 49.9951792,5.84995838 49.6194459,5.47217865 C49.4364108,5.28823414 49.192781,5.18682592 48.9334624,5.18671223 L48.932894,5.18671223 C48.6735754,5.18671223 48.4299456,5.28789308 48.2469106,5.47149653 C47.1060681,6.61597699 45.4700079,6.94339367 43.9765103,6.32630418 C42.4832401,5.709101 41.5555595,4.32201387 41.5555595,2.70618982 L41.5555595,2.67378921 C41.5555595,2.13980443 41.1210503,1.70529521 40.5870655,1.70529521 L40.5618272,1.70529521 C40.0278424,1.70529521 39.5934469,2.13980443 39.5934469,2.67378921 L39.5934469,2.73415666 C39.5934469,4.34770699 38.6675853,5.73411199 37.1771572,6.35233835 C35.6867292,6.9706784 34.0515785,6.64655862 32.9093718,5.50696667 L32.8658299,5.46353849 C32.4887323,5.08723668 31.8753944,5.08666825 31.4982968,5.46183319 L31.4843134,5.47570293 C31.3000278,5.65907901 31.1986196,5.90236779 31.1982785,6.16157266 C31.1979375,6.42077753 31.2986636,6.66440738 31.4820397,6.84789714 L31.493863,6.85960683 C32.6367519,8.002382 32.9621222,9.63821485 32.3443506,11.1297797 C31.726579,12.6213446 30.3398329,13.5478883 28.7253731,13.5478883 C28.185363,13.5478883 27.7508537,13.9823976 27.7508537,14.5163823 L27.7508537,14.5416207 C27.7508537,15.0756055 28.185363,15.510001 28.7193477,15.510001 C29.8730368,15.510001 30.91213,15.9736139 31.6547292,16.8153477 C31.9662298,17.1685711 31.9325787,17.7073307 31.5794689,18.0188313 C31.2262454,18.3305593 30.6874858,18.2966808 30.3759852,17.943571 C29.9617121,17.4739327 29.3767959,17.2152962 28.7288974,17.2152962 C27.2450632,17.2152962 26.0455585,16.0157916 26.0455585,14.5416207 L26.0455585,14.5163823 C26.0455585,13.0420978 27.2450632,11.8425931 28.7193477,11.8425931 C29.8150567,11.8425931 30.4953558,11.137283 30.7688852,10.4772201 C31.0421872,9.81704348 31.0598086,8.83718085 30.2892425,8.06672847 L30.2774191,8.05490509 C29.7701506,7.54752292 29.4919601,6.87472712 29.4929833,6.15907156 C29.4940065,5.44352969 29.774016,4.77164338 30.2813981,4.26710337 L30.2953816,4.25311995 C31.3372033,3.21709626 33.0301067,3.21834681 34.069882,4.2559621 L34.1135375,4.29939029 C34.8847857,5.06893318 35.8641936,5.05074336 36.5238018,4.77721401 C37.18341,4.50368466 37.8881517,3.82315818 37.8881517,2.73415666 L37.8881517,2.67378921 C37.8881517,1.19950465 39.0875426,0 40.5618272,0 L40.5870655,0 C42.0613501,0 43.2608547,1.19950465 43.2608547,2.67378921 L43.2608547,2.70618982 C43.2608547,3.79678295 43.9669607,4.47719574 44.6278194,4.75038403 C45.2885644,5.02334495 46.2692229,5.03994316 47.0391068,4.26755811 C47.5445563,3.76063069 48.2171248,3.48141702 48.932894,3.48141702 L48.9342582,3.48141702 C49.6505959,3.48187176 50.323278,3.76176755 50.8283865,4.26960447 C51.8660018,5.31279039 51.8632733,7.0072854 50.8223611,8.04706073 L50.8020112,8.0672969 C50.032241,8.83615767 50.0495213,9.81636136 50.3228233,10.4767654 C50.5962389,11.136942 51.2765381,11.8425931 52.3665628,11.8425931 L52.4296587,11.8425931 C53.9039432,11.8425931 55.1034479,13.0420978 55.1034479,14.5163823 L55.1034479,14.5416207 C55.1034479,16.0157916 53.9039432,17.2152962 52.4296587,17.2152962 L52.3641753,17.2152962 C51.274378,17.2152962 50.5939652,17.9208337 50.3206632,18.581124 C50.0472476,19.2413006 50.0298536,20.2212769 50.8007607,20.9917293 L50.8323655,21.0232204 C51.8721408,22.0624273 51.8745282,23.7568087 50.8369129,24.7996535 L50.8302055,24.8064747 C50.322937,25.3162443 49.6503685,25.5961401 48.9342582,25.5964811 L48.9326666,25.5964811 C48.2197395,25.5964811 47.5497859,25.3194275 47.0450185,24.816138 C47.0428585,24.8140917 47.0408121,24.8120453 47.0387658,24.809999 C46.2687681,24.0381824 45.2884508,24.0546669 44.627592,24.3279689 C43.966847,24.6011572 43.2608547,25.2814563 43.2608547,26.3719357 L43.2608547,26.3841002 C43.2608547,27.8583847 42.0613501,29.0578894 40.5870655,29.0578894" id="Fill-8"></path>
                </g>
            </g>
        </g>
    </g>
</svg>