<?xml version="1.0" encoding="UTF-8"?>
<svg width="56px" height="56px" viewBox="0 0 56 56" version="1.1" xmlns="http://www.w3.org/2000/svg" xmlns:xlink="http://www.w3.org/1999/xlink">
    <!-- Generator: sketchtool 54.1 (76490) - https://sketchapp.com -->
    <title>99458CE4-965F-488F-9815-7BA07D7BEC5E</title>
    <desc>Created with sketchtool.</desc>
    <g id="developer.equinor.com-V-4.0" stroke="none" stroke-width="1" fill="none" fill-rule="evenodd">
        <g id="Style" transform="translate(-197.000000, -761.000000)" fill="#FF1243">
            <g id="Icon_tag/Design" transform="translate(197.000000, 761.000000)">
                <g id="Group" transform="translate(3.111111, 7.777778)">
                    <path d="M22.6591916,31.8888889 C22.3633026,31.8888889 22.0761824,31.7445627 21.9219424,31.4885606 L17.2178474,23.6819502 C17.0990196,23.4848015 17.0783344,23.2498036 17.1611878,23.0374736 L24.1212114,5.19218858 C24.2419503,4.88315591 24.5590866,4.66666667 24.9143332,4.66666667 L24.915345,4.66666667 C25.2709289,4.66666667 25.5880652,4.88419572 25.7081296,5.19385228 L32.6172269,23.0339383 C32.6994058,23.2459563 32.6783833,23.4829299 32.5597804,23.6795587 L27.8556854,31.4796182 C27.6287098,31.8557188 27.1152885,31.9912066 26.7085536,31.7813721 C26.3019311,31.5715377 26.1561225,31.0968627 26.3830982,30.720762 L30.9005763,23.2316069 L24.9114103,7.77175874 L18.8777261,23.2328546 L23.3948669,30.7291845 C23.6216177,31.1053892 23.4756967,31.5803761 23.0689618,31.7901066 C22.9390045,31.8570706 22.7980301,31.8888889 22.6591916,31.8888889" id="Fill-1"></path>
                    <path d="M24.8888889,22.5555556 C24.4593481,22.5555556 24.1111111,22.193228 24.1111111,21.746307 L24.1111111,4.69813744 C24.1111111,4.25121644 24.4593481,3.88888889 24.8888889,3.88888889 C25.3184296,3.88888889 25.6666667,4.25121644 25.6666667,4.69813744 L25.6666667,21.746307 C25.6666667,22.193228 25.3184296,22.5555556 24.8888889,22.5555556" id="Fill-3"></path>
                    <path d="M24.8889322,23.3333333 C24.0311664,23.3333333 23.3333333,22.6355003 23.3333333,21.7777345 C23.3333333,20.9200553 24.0311664,20.2222222 24.8889322,20.2222222 C25.746698,20.2222222 26.4444444,20.9200553 26.4444444,21.7777345 C26.4444444,22.6355003 25.746698,23.3333333 24.8889322,23.3333333" id="Path"></path>
                    <path d="M30.2605617,40.4444444 C29.7908317,40.4444444 29.4100124,40.110877 29.4100124,39.6994307 L29.4100124,34.9280648 C29.4100124,33.6449525 28.218336,32.6011386 26.7534632,32.6011386 L23.0243146,32.6011386 C21.5595552,32.6011386 20.3677654,33.6449525 20.3677654,34.9280648 L20.3677654,39.6994307 C20.3677654,40.110877 19.9869461,40.4444444 19.517216,40.4444444 C19.047486,40.4444444 18.6666667,40.110877 18.6666667,39.6994307 L18.6666667,34.9280648 C18.6666667,32.8233513 20.6214559,31.1111111 23.0243146,31.1111111 L26.7534632,31.1111111 C29.1563219,31.1111111 31.1111111,32.8233513 31.1111111,34.9280648 L31.1111111,39.6994307 C31.1111111,40.110877 30.7302918,40.4444444 30.2605617,40.4444444" id="Fill-7"></path>
                    <path d="M23.3853103,4.61468988 L26.3924677,4.61468988 L26.3924677,1.60753253 L23.3853103,1.60753253 L23.3853103,4.61468988 Z M27.1962338,6.22222222 L22.581544,6.22222222 C22.1376507,6.22222222 21.7777778,5.86234929 21.7777778,5.418456 L21.7777778,0.803766219 C21.7777778,0.359872928 22.1376507,0 22.581544,0 L27.1962338,0 C27.6401271,0 28,0.359872928 28,0.803766219 L28,5.418456 C28,5.86234929 27.6401271,6.22222222 27.1962338,6.22222222 L27.1962338,6.22222222 Z" id="Fill-9"></path>
                    <path d="M22.5665102,3.88888889 L2.32237872,3.88888889 C1.89888785,3.88888889 1.55555556,3.54065185 1.55555556,3.11111111 C1.55555556,2.68157037 1.89888785,2.33333333 2.32237872,2.33333333 L22.5665102,2.33333333 C22.990001,2.33333333 23.3333333,2.68157037 23.3333333,3.11111111 C23.3333333,3.54065185 22.990001,3.88888889 22.5665102,3.88888889" id="Fill-11"></path>
                    <path d="M47.4553991,3.88888889 L27.2112676,3.88888889 C26.7877767,3.88888889 26.4444444,3.54065185 26.4444444,3.11111111 C26.4444444,2.68157037 26.7877767,2.33333333 27.2112676,2.33333333 L47.4553991,2.33333333 C47.8788899,2.33333333 48.2222222,2.68157037 48.2222222,3.11111111 C48.2222222,3.54065185 47.8788899,3.88888889 47.4553991,3.88888889" id="Fill-11-Copy"></path>
                    <path d="M1.55559885,4.66666667 C0.697833072,4.66666667 0,3.96892019 0,3.11115441 C0,2.25338863 0.697833072,1.55555556 1.55559885,1.55555556 C2.41336463,1.55555556 3.11111111,2.25338863 3.11111111,3.11115441 C3.11111111,3.96892019 2.41336463,4.66666667 1.55559885,4.66666667" id="Path"></path>
                    <path d="M48.2222655,4.66666667 C47.3644997,4.66666667 46.6666667,3.96892019 46.6666667,3.11115441 C46.6666667,2.25338863 47.3644997,1.55555556 48.2222655,1.55555556 C49.0800313,1.55555556 49.7777778,2.25338863 49.7777778,3.11115441 C49.7777778,3.96892019 49.0800313,4.66666667 48.2222655,4.66666667" id="Path"></path>
                    <path d="M46.673512,24.8888889 C46.2477518,24.8888889 45.9025796,24.5438789 45.9025796,24.1183187 C45.9025796,13.7755202 38.1646797,5.07044018 27.9035694,3.86948086 C27.4806873,3.81995888 27.1780706,3.43713962 27.2275131,3.01445618 C27.2770583,2.59177275 27.6604687,2.28878455 28.0829397,2.3387175 C39.1207387,3.63070685 47.4444444,12.9938538 47.4444444,24.1183187 C47.4444444,24.5438789 47.0992723,24.8888889 46.673512,24.8888889" id="Fill-15"></path>
                    <path d="M3.87486769,24.8888889 C3.45307039,24.8888889 3.11111111,24.544206 3.11111111,24.1190493 C3.11111111,18.6821338 5.10084974,13.4679586 8.71372385,9.4369756 C12.3002229,5.43555445 17.1918292,2.91427831 22.4875136,2.33792504 C22.9066632,2.29183731 23.2835516,2.59792555 23.3288679,3.02072148 C23.3740822,3.44341476 23.07082,3.82309967 22.6514667,3.86867418 C17.7292083,4.40448256 13.1819035,6.7484903 9.84713861,10.4691766 C6.48844269,14.2165507 4.63862426,19.0641795 4.63862426,24.1190493 C4.63862426,24.544206 4.29666499,24.8888889 3.87486769,24.8888889" id="Fill-16"></path>
                </g>
            </g>
        </g>
    </g>
</svg>