<?xml version="1.0" encoding="UTF-8"?>
<svg width="56px" height="56px" viewBox="0 0 56 56" version="1.1" xmlns="http://www.w3.org/2000/svg" xmlns:xlink="http://www.w3.org/1999/xlink">
    <!-- Generator: sketchtool 54.1 (76490) - https://sketchapp.com -->
    <title>2E06F4A4-2EFC-4772-92BC-C8F7260BE149</title>
    <desc>Created with sketchtool.</desc>
    <g id="developer.equinor.com-V-4.0" stroke="none" stroke-width="1" fill="none" fill-rule="evenodd">
        <g id="Style" transform="translate(-613.000000, -761.000000)" fill="#FF1243" fill-rule="nonzero">
            <g id="Icon_tag/General" transform="translate(613.000000, 761.000000)">
                <path d="M34.0491188,5.56153305 C34.3534233,5.48505862 34.6719681,5.44444428 34.9999988,5.44444428 C37.1477728,5.44444428 38.8888876,7.18555909 38.8888876,9.33333304 C38.8888876,10.9419237 37.9122323,12.3224042 36.5195499,12.9141464 C36.7509387,13.9141596 36.9599965,14.957597 37.1447747,16.0390624 C42.9918628,16.652508 48.3086078,17.8509307 53.094415,19.635887 C49.9571163,10.2187512 41.6671906,3.15674168 31.5691427,1.79436313 C32.4630399,2.72846571 33.296581,4.00324793 34.0491188,5.56153305 Z M32.6694888,6.21981888 C31.2746736,3.27667457 29.6396525,1.55555556 27.9999993,1.55555556 C24.9969341,1.55555556 22.0094068,7.32901932 20.4847412,15.8096061 C22.7299587,15.6407312 25.0693637,15.5563629 27.502942,15.5563629 C30.2777942,15.5563629 32.9531171,15.6660566 35.5288624,15.8855705 C35.3645838,14.9647945 35.183075,14.0757029 34.9861781,13.2221979 C32.8447607,13.2147476 31.1111103,11.4764982 31.1111103,9.33333315 C31.1111103,8.05976338 31.7233137,6.92918139 32.6694888,6.21981888 Z M21.9508799,50.4384662 C21.6465754,50.5149407 21.3280306,50.555555 20.9999998,50.555555 C18.8522258,50.555555 17.111111,48.8144402 17.111111,46.6666663 C17.111111,45.0580757 18.0877663,43.6775951 19.4804487,43.085853 C19.245043,42.0684791 19.0327502,41.0061604 18.8456224,39.9045788 C12.9950844,39.2918131 7.67535844,38.0935539 2.88704001,36.3082424 C6.01011705,45.753308 14.3128479,52.8405647 24.430856,54.2056361 C23.5369588,53.2715336 22.7034177,51.9967513 21.9508799,50.4384662 Z M21.0138208,42.7778007 C23.1552383,42.785251 24.8888888,44.5235004 24.8888888,46.6666654 C24.8888888,47.9402352 24.2766854,49.0708172 23.3305102,49.7801797 C24.7253255,52.723324 26.3603468,54.444443 28,54.444443 C31.0101978,54.444443 34.0047837,48.6435226 35.5260972,40.1299223 C33.2702861,40.3005428 30.9193144,40.3857827 28.4731963,40.3857827 C25.703291,40.3857827 23.0325605,40.2764799 20.4610528,40.0577482 C20.627978,40.9987285 20.8128865,41.9067951 21.0138208,42.7778007 Z M41.2641168,37.9061795 C41.2365173,37.7192317 41.2222211,37.527952 41.2222211,37.3333332 C41.2222211,35.1855592 42.9633359,33.4444444 45.1111099,33.4444444 C46.8641457,33.4444444 48.3462653,34.6043745 48.8318461,36.1986122 C50.5273581,35.6841199 52.1358773,35.0943274 53.6574162,34.4293569 C54.171514,32.3711574 54.444443,30.2174518 54.444443,28.0000001 C54.444443,25.7626315 54.1665891,23.5901592 53.6435051,21.5152068 C48.8179639,19.5880085 43.4020519,18.2924969 37.3950734,17.630494 C37.8570551,20.8375162 38.1111101,24.3365982 38.1111101,28.0000001 C38.1111101,31.6765564 37.8552273,35.1876106 37.3900888,38.4040417 C38.7179431,38.269777 40.0092846,38.1038118 41.2641168,37.9061795 Z M41.8123468,39.3938324 C40.3051156,39.6384036 38.7474971,39.8377006 37.139497,39.9917775 C36.0224789,46.5087776 34.0232745,51.6411233 31.5691427,54.2056361 C41.6723626,52.8425598 49.9656077,45.7740126 53.0992319,36.3496407 C51.7821435,36.8784089 50.40728,37.3551094 48.974648,37.7798088 C48.7531864,39.7173043 47.1078944,41.2222212 45.1111102,41.2222212 C43.7201175,41.2222212 42.4996951,40.4919236 41.8123468,39.3938324 Z M17.9826415,31.828928 C16.1610656,31.5057035 14.7777773,29.9143943 14.7777773,28.0000007 C14.7777773,26.0856071 16.1610656,24.4942978 17.9826415,24.1710734 C18.0969127,21.8569565 18.313289,19.6328787 18.618784,17.5348028 C17.5751576,17.6398712 16.5540654,17.764504 15.5555058,17.908685 C15.5448467,20.0473516 13.8078379,21.7777784 11.6666663,21.7777784 C10.0786187,21.7777784 8.71289205,20.825909 8.10890882,19.4615928 C6.07243068,20.0345249 4.15675347,20.7120503 2.36185683,21.493969 C1.83530892,23.5753338 1.55555556,25.7549973 1.55555556,28.0000007 C1.55555556,30.2180732 1.82863737,32.372364 2.34301414,34.4310863 C7.17017323,36.3576865 12.5878922,37.6523968 18.5968673,38.3133943 C18.3029262,36.2599443 18.0941607,34.0873133 17.9826415,31.828928 Z M19.5404146,31.7903429 C19.6596914,34.1323395 19.8866917,36.3738643 20.2019214,38.4736167 C22.8481964,38.7113077 25.6052692,38.8302271 28.4731961,38.8302271 C31.018704,38.8302271 33.4565207,38.7365407 35.7866634,38.549336 C36.2755074,35.3201504 36.5555556,31.7533857 36.5555556,27.9999991 C36.5555556,24.2540682 36.2766189,20.6940185 35.789574,17.4699093 C33.1386091,17.2312981 30.3764176,17.1119181 27.5029426,17.1119181 C24.9694671,17.1119181 22.5426672,17.204721 20.2225257,17.3901608 C19.8965743,19.5290934 19.6622746,21.816939 19.5404146,24.2096553 C21.2674571,24.606149 22.5555554,26.1526483 22.5555554,27.9999991 C22.5555554,29.8473499 21.2674571,31.3938492 19.5404146,31.7903429 Z M15.2523397,16.3808261 C16.4288241,16.2095367 17.6350498,16.0649638 18.8710144,15.9470827 C19.9900369,9.45912611 21.9844045,4.35085097 24.4308568,1.79436313 C14.3554722,3.15368405 6.08010279,10.1870807 2.92678502,19.5725167 C4.46523732,18.9570939 6.08234305,18.4125536 7.77809146,17.93879 C7.77788261,17.9221813 7.77777787,17.9055474 7.77777787,17.8888892 C7.77777787,15.7411151 9.51889277,14.0000002 11.6666669,14.0000002 C13.279677,14.0000002 14.6633219,14.9820294 15.2523397,16.3808261 Z M28,56 C12.536027,56 0,43.463973 0,28 C0,12.536027 12.536027,0 28,0 C43.463973,0 56,12.536027 56,28 C56,43.463973 43.463973,56 28,56 Z M35,11.6666667 C36.2886644,11.6666667 37.3333333,10.6219977 37.3333333,9.33333333 C37.3333333,8.04466892 36.2886644,7 35,7 C33.7113356,7 32.6666667,8.04466892 32.6666667,9.33333333 C32.6666667,10.6219977 33.7113356,11.6666667 35,11.6666667 Z M11.6666667,20.2222222 C12.9553311,20.2222222 14,19.1775533 14,17.8888889 C14,16.6002245 12.9553311,15.5555556 11.6666667,15.5555556 C10.3780023,15.5555556 9.33333333,16.6002245 9.33333333,17.8888889 C9.33333333,19.1775533 10.3780023,20.2222222 11.6666667,20.2222222 Z M18.6666667,30.3333333 C19.9553311,30.3333333 21,29.2886644 21,28 C21,26.7113356 19.9553311,25.6666667 18.6666667,25.6666667 C17.3780023,25.6666667 16.3333333,26.7113356 16.3333333,28 C16.3333333,29.2886644 17.3780023,30.3333333 18.6666667,30.3333333 Z M21,49 C22.2886644,49 23.3333333,47.9553311 23.3333333,46.6666667 C23.3333333,45.3780023 22.2886644,44.3333333 21,44.3333333 C19.7113356,44.3333333 18.6666667,45.3780023 18.6666667,46.6666667 C18.6666667,47.9553311 19.7113356,49 21,49 Z M45.1111111,39.6666667 C46.3997755,39.6666667 47.4444444,38.6219977 47.4444444,37.3333333 C47.4444444,36.0446689 46.3997755,35 45.1111111,35 C43.8224467,35 42.7777778,36.0446689 42.7777778,37.3333333 C42.7777778,38.6219977 43.8224467,39.6666667 45.1111111,39.6666667 Z" id="Combined-Shape"></path>
            </g>
        </g>
    </g>
</svg>