<?xml version="1.0" encoding="UTF-8"?>
<svg width="56px" height="56px" viewBox="0 0 56 56" version="1.1" xmlns="http://www.w3.org/2000/svg" xmlns:xlink="http://www.w3.org/1999/xlink">
    <!-- Generator: sketchtool 54.1 (76490) - https://sketchapp.com -->
    <title>F8AB524F-5160-4BE4-897D-3173CA42D520</title>
    <desc>Created with sketchtool.</desc>
    <g id="developer.equinor.com-V-4.0" stroke="none" stroke-width="1" fill="none" fill-rule="evenodd">
        <g id="Style" transform="translate(-301.000000, -761.000000)" fill="#FF1243">
            <g id="Icon_tag/OpenSource" transform="translate(301.000000, 761.000000)">
                <g id="Group" transform="translate(-0.000024, 7.000000)">
                    <path d="M4.57888597,1.77445557 C3.0312067,1.77445557 1.77215189,3.03514712 1.77215189,4.58483832 L1.77215189,38.1667651 C1.77215189,39.716338 3.0312067,40.9771478 4.57888597,40.9771478 L51.39961,40.9771478 C52.9471712,40.9771478 54.2063441,39.716338 54.2063441,38.1667651 L54.2063441,4.58483832 C54.2063441,3.03514712 52.9471712,1.77445557 51.39961,1.77445557 L4.57888597,1.77445557 Z M51.3996094,42.751606 L4.57888586,42.751606 C2.05416024,42.751606 3.3158661e-14,40.6947753 3.3158661e-14,38.1667674 L3.3158661e-14,4.58483861 C3.3158661e-14,2.05671244 2.05416024,0 4.57888586,0 L51.3996094,0 C53.924335,0 55.9784953,2.05671244 55.9784953,4.58483861 L55.9784953,38.1667674 C55.9784953,40.6947753 53.924335,42.751606 51.3996094,42.751606 L51.3996094,42.751606 Z" id="Fill-1"></path>
                    <path d="M51.0000224,10.6339105 L5.82355302,10.6339105 C5.33614126,10.6339105 4.9412001,10.2651889 4.9412001,9.81038104 C4.9412001,9.35557317 5.33614126,8.98685159 5.82355302,8.98685159 L51.0000224,8.98685159 C51.4874342,8.98685159 51.8823753,9.35557317 51.8823753,9.81038104 C51.8823753,10.2651889 51.4874342,10.6339105 51.0000224,10.6339105" id="Fill-4"></path>
                    <path d="M7.41184746,7.33979305 C6.50362577,7.33979305 5.76472955,6.60089683 5.76472955,5.69279313 C5.76472955,4.78457145 6.50362577,4.04567522 7.41184746,4.04567522 C8.31995115,4.04567522 9.05884737,4.78457145 9.05884737,5.69279313 C9.05884737,6.60089683 8.31995115,7.33979305 7.41184746,7.33979305" id="Path"></path>
                    <path d="M12.3530238,7.33979305 C11.4448021,7.33979305 10.7059059,6.60089683 10.7059059,5.69279313 C10.7059059,4.78457145 11.4448021,4.04567522 12.3530238,4.04567522 C13.2611275,4.04567522 14.0000237,4.78457145 14.0000237,5.69279313 C14.0000237,6.60089683 13.2611275,7.33979305 12.3530238,7.33979305" id="Path"></path>
                    <path d="M17.2930158,7.33979305 C17.1260689,7.33979305 16.9565264,7.31418963 16.7892256,7.26038706 C15.9251133,6.98205314 15.4482234,6.05242495 15.7264288,5.18804417 C16.0048703,4.3235454 16.9344635,3.84675552 17.7989297,4.12508943 C18.663278,4.40342334 19.1400499,5.33316953 18.8618445,6.19743232 C18.8617265,6.19755031 18.8617265,6.19766829 18.8617265,6.19766829 C18.6372036,6.89485994 17.9888834,7.33979305 17.2930158,7.33979305 L17.2930158,7.33979305 Z" id="Path"></path>
                    <path d="M21.3880858,32.8692036 C21.1770951,32.8692036 20.9657656,32.7876784 20.8015362,32.6238059 L14.2604865,26.0929853 C14.0941111,25.9268808 14.0000237,25.6973418 14.0000237,25.4574652 C14.0000237,25.2175887 14.0941111,24.9880497 14.2604865,24.8218277 L20.8015362,18.2911246 C21.138918,17.9542167 21.6753177,17.9654939 21.9992584,18.3166159 C22.3233121,18.6675028 22.3123559,19.2253743 21.9748612,19.5622822 L16.0703979,25.4574652 L21.9748612,31.3525308 C22.3123559,31.6895561 22.3233121,32.2473102 21.9992584,32.5983146 C21.832883,32.7785157 21.6107103,32.8692036 21.3880858,32.8692036" id="Fill-12"></path>
                    <path d="M34.6119625,32.8692036 C34.3893379,32.8692036 34.1671652,32.7785157 34.0007898,32.5983146 C33.6767361,32.2473102 33.6876923,31.6895561 34.025187,31.3525308 L39.9296503,25.4574652 L34.025187,19.5622822 C33.6876923,19.2253743 33.6767361,18.6675028 34.0007898,18.3166159 C34.3248435,17.9654939 34.8610173,17.9542167 35.198512,18.2911246 L41.7395617,24.8218277 C41.9059371,24.9880497 42.0000245,25.2175887 42.0000245,25.4574652 C42.0000245,25.6973418 41.9059371,25.9268808 41.7395617,26.0929853 L35.198512,32.6238059 C35.0342827,32.7876784 34.8229531,32.8692036 34.6119625,32.8692036" id="Fill-14"></path>
                    <path d="M23.9754148,32.8692036 C23.830248,32.8692036 23.6830021,32.8360774 23.5459069,32.7660661 C23.0985436,32.5378245 22.9285505,32.0043994 23.1662963,31.5746991 L30.3902718,18.5135956 C30.6278953,18.0838953 31.1833694,17.9204964 31.6306104,18.1488554 C32.0779737,18.377097 32.2479668,18.9105221 32.010221,19.3402224 L24.7862455,32.401326 C24.6213888,32.6993439 24.3039052,32.8692036 23.9754148,32.8692036" id="Fill-16"></path>
                </g>
            </g>
        </g>
    </g>
</svg>