<?xml version="1.0" encoding="UTF-8"?>
<svg width="56px" height="56px" viewBox="0 0 56 56" version="1.1" xmlns="http://www.w3.org/2000/svg" xmlns:xlink="http://www.w3.org/1999/xlink">
    <!-- Generator: sketchtool 54.1 (76490) - https://sketchapp.com -->
    <title>3470C38A-0CAD-48DA-92FF-F98950D5ECD1</title>
    <desc>Created with sketchtool.</desc>
    <g id="developer.equinor.com-V-4.0" stroke="none" stroke-width="1" fill="none" fill-rule="evenodd">
        <g id="Style" transform="translate(-405.000000, -761.000000)" fill="#FF1243">
            <g id="Icon_tag/Security" transform="translate(405.000000, 761.000000)">
                <g id="Group" transform="translate(5.444467, -0.706505)">
                    <path d="M4.26462057,8.67410661 L4.26462057,9.44944462 C3.42797047,9.44944462 2.77392791,9.49824153 2.33227638,9.58935938 C1.85624997,9.68747725 1.53048002,10.1144635 1.55683532,10.6129616 L2.82504575,32.4626989 C3.10187738,37.9147057 5.77139728,42.8532408 10.1456067,46.0179355 L22.5557655,54.8045046 L34.9656344,46.0179909 C39.3402543,42.8530782 42.0095635,37.9144298 42.2863567,32.4627923 L43.5541548,10.6209073 C43.5799023,10.1344873 43.239418,9.69072881 42.7747291,9.5964736 C42.375044,9.51552117 41.7938109,9.47207723 41.0579054,9.47207723 C40.9112373,9.47207723 40.7607211,9.47376987 40.606467,9.47713432 C40.4425589,9.48068467 40.2771909,9.48244586 40.1107941,9.48244586 C35.4111095,9.4825613 30.9153333,8.06304124 27.1146125,5.37823509 L22.8079953,2.33612009 C22.7338472,2.2838033 22.6501729,2.25718112 22.5612753,2.25718112 C22.4719217,2.25718112 22.3879942,2.28404042 22.3138445,2.33678069 L18.1328592,5.31023723 C14.3172213,8.02386112 9.85248492,9.45958621 5.2258463,9.45970176 C5.07310984,9.45970176 4.9202658,9.45808257 4.76796497,9.45485784 C4.59187362,9.45127646 4.42451348,9.44944462 4.26462057,9.44944462 L4.26462057,8.67410661 Z M4.26462073,8.67410665 L4.26462073,7.89876862 C4.43552427,7.89876862 4.6133994,7.90071556 4.80034515,7.90451796 C4.94229219,7.90752322 5.08412567,7.90902577 5.22582701,7.90902577 C9.52734976,7.90891833 13.6765068,6.57467411 17.2294351,4.04788542 L21.4103857,1.07445364 C21.7478553,0.834422475 22.1475602,0.706505054 22.5612762,0.706505054 C22.9726294,0.706505054 23.3701965,0.832996653 23.7070198,1.07064962 L28.013986,4.11301092 C31.5511385,6.61163395 35.732495,7.93187741 40.1107766,7.93176986 C40.266019,7.93176986 40.4201252,7.93012861 40.572559,7.92682681 C40.7378647,7.92322131 40.8997127,7.92140123 41.0579072,7.92140123 C41.8890727,7.92140123 42.5672511,7.97209129 43.0846733,8.07689028 C44.3083554,8.32509584 45.1737012,9.4529145 45.107333,10.70655 L43.8396212,32.5467695 C43.5394215,38.4598486 40.6359824,43.8316746 35.8728562,47.2776103 L22.5557754,56.7065051 L22.1053956,56.3876298 L9.23839084,47.2775577 C4.47569118,43.8318492 1.5720261,38.4601525 1.27178342,32.5466812 L0.00365727435,10.698571 C-0.0631488246,9.43545452 0.784078565,8.32499482 2.01715973,8.07083395 C2.57927921,7.95486215 3.33112099,7.89876862 4.26462073,7.89876862 L4.26462073,8.67410665 Z" id="Path"></path>
                    <path d="M21.0144272,32.9287273 C20.8124524,32.9287273 20.6181116,32.849394 20.4745916,32.7071561 L17.3347117,29.5953246 C17.0365479,29.2998244 17.0365479,28.8207984 17.3347117,28.5252981 C17.6328754,28.229906 18.1162191,28.229906 18.4143828,28.5252981 L20.9533549,31.0416977 L26.4199807,24.3216073 C26.6846637,23.9961679 27.1650629,23.9452606 27.4934356,24.2074711 C27.8216992,24.4696816 27.8732835,24.9460055 27.6086005,25.2713368 L21.6086826,32.6470617 C21.4727967,32.8141588 21.2714762,32.9161896 21.0552148,32.9276464 C21.0415826,32.928403 21.0279504,32.9287273 21.0144272,32.9287273" id="Fill-6"></path>
                    <path d="M22.5555333,38.8176159 C28.5693006,38.8176159 33.4444222,33.9424943 33.4444222,27.928727 C33.4444222,21.9149598 28.5693006,17.0398382 22.5555333,17.0398382 C16.541766,17.0398382 11.6666444,21.9149598 11.6666444,27.928727 C11.6666444,33.9424943 16.541766,38.8176159 22.5555333,38.8176159 Z M22.5555333,40.3731715 C15.6826564,40.3731715 10.1110889,34.8016039 10.1110889,27.928727 C10.1110889,21.0558502 15.6826564,15.4842826 22.5555333,15.4842826 C29.4284102,15.4842826 34.9999777,21.0558502 34.9999777,27.928727 C34.9999777,34.8016039 29.4284102,40.3731715 22.5555333,40.3731715 Z" id="Oval"></path>
                </g>
            </g>
        </g>
    </g>
</svg>