<?xml version="1.0" encoding="UTF-8"?>
<svg width="56px" height="56px" viewBox="0 0 56 56" version="1.1" xmlns="http://www.w3.org/2000/svg" xmlns:xlink="http://www.w3.org/1999/xlink">
    <!-- Generator: sketchtool 54.1 (76490) - https://sketchapp.com -->
    <title>AB6AD860-56CD-4E1C-A844-D99A632A554D</title>
    <desc>Created with sketchtool.</desc>
    <g id="developer.equinor.com-V-4.0" stroke="none" stroke-width="1" fill="none" fill-rule="evenodd">
        <g id="Style" transform="translate(-509.000000, -761.000000)" fill="#FF1243">
            <g id="Icon_tag/Tech" transform="translate(509.000000, 761.000000)">
                <g id="Group" transform="translate(-0.000023, 0.085003)">
                    <path d="M20.6956743,27.5804961 C16.9311165,27.5804961 13.8684101,30.6431099 13.8684101,34.4078057 C13.8684101,38.1723885 16.9311165,41.2350023 20.6956743,41.2350023 C24.4602321,41.2350023 27.5229386,38.1723885 27.5229386,34.4078057 C27.5229386,30.6431099 24.4602321,27.5804961 20.6956743,27.5804961 M20.6956747,42.9294887 C15.9967833,42.9294887 12.1739354,39.1066154 12.1739354,34.4078059 C12.1739354,29.7088833 15.9967833,25.8860101 20.6956747,25.8860101 C25.3945661,25.8860101 29.217414,29.7088833 29.217414,34.4078059 C29.217414,39.1066154 25.3945661,42.9294887 20.6956747,42.9294887" id="Fill-1"></path>
                    <path d="M13.8139251,46.9115011 C14.513837,46.9115011 15.2241582,47.0508952 15.912303,47.3364719 C17.9615762,48.1867528 19.234565,50.0932376 19.234565,52.3118882 L19.234565,52.3695919 C19.234565,53.3886844 20.0636879,54.2178073 21.0827804,54.2178073 L21.1201181,54.2178073 C22.1392106,54.2178073 22.9683335,53.3886844 22.9683335,52.3695919 L22.9683335,52.3514887 C22.9683335,50.1297833 24.2438115,48.2223933 26.2969316,47.3734701 C28.3501648,46.5247732 30.6002695,46.9746358 32.1691311,48.5476838 C32.5196528,48.8989974 32.9843373,49.0919088 33.4788919,49.0919088 L33.4800233,49.0919088 C33.9750305,49.0915694 34.4399413,48.8982054 34.7891052,48.5473443 L34.8012117,48.5351247 C35.5194529,47.8132628 35.5178689,46.6418778 34.7984962,45.9230708 L34.7527858,45.8772473 C33.182227,44.3078199 32.7341748,42.0582809 33.5835505,40.0067449 C34.4329263,37.9549825 36.34009,36.6804097 38.560664,36.6804097 L38.6575157,36.6804097 C39.6766082,36.6804097 40.5057311,35.8512868 40.5057311,34.8321943 L40.5057311,34.7949697 C40.5057311,33.7757641 39.6766082,32.9466412 38.6575157,32.9466412 L38.5640583,32.9466412 C36.3432581,32.9466412 34.4360944,31.6719552 33.5868317,29.6199666 C32.737456,27.5679779 33.1859608,25.3183258 34.7571984,23.7487853 L34.7855977,23.7204992 C35.5048573,23.0021447 35.5067808,21.8307597 34.7895578,21.1096898 C34.4402807,20.7587156 33.9752568,20.5652385 33.4801365,20.5648991 L33.4791182,20.5648991 C32.9843373,20.5648991 32.5195397,20.7579236 32.1701494,21.1083321 C30.6015141,22.6821721 28.3512963,23.1327135 26.2977236,22.2837903 C24.2441509,21.4350934 22.9683335,19.5275903 22.9683335,17.3054323 L22.9683335,17.2575722 C22.9683335,16.2383665 22.1392106,15.4092436 21.1201181,15.4092436 L21.0827804,15.4092436 C20.0636879,15.4092436 19.234565,16.2383665 19.234565,17.2575722 L19.234565,17.3469563 C19.234565,19.5658331 17.9613499,21.472318 15.9118504,22.3225989 C13.8624641,23.1729929 11.613604,22.7274299 10.0429321,21.1600391 L9.97719511,21.0944153 C9.25895382,20.3777581 8.08858711,20.3767398 7.36887494,21.0927182 L7.34669862,21.1146682 C6.99662954,21.4628138 6.8030393,21.9273851 6.80236043,22.4220529 C6.80168156,22.9166075 6.99391407,23.3816314 7.34375686,23.7313611 L7.36491488,23.7526322 C8.93309766,25.320815 9.38058416,27.5701277 8.53109525,29.6213243 C7.6814932,31.6724078 5.77444264,32.9466412 3.55432125,32.9466412 C2.52629032,32.9466412 1.69716742,33.7757641 1.69716742,34.7949697 L1.69716742,34.8321943 C1.69716742,35.8512868 2.52629032,36.6804097 3.54538284,36.6804097 L3.55963905,36.6804097 C5.779421,36.6804097 7.68624527,37.9543036 8.53607361,40.0050477 C9.38578881,42.0556786 8.93898117,44.3048781 7.36989324,45.8749844 L7.33108468,45.9137929 C6.98180761,46.2632963 6.78968824,46.7280939 6.79036711,47.2224222 C6.79104598,47.7168637 6.98440993,48.1812087 7.3347053,48.5300332 L7.36932752,48.564316 C8.08903969,49.280747 9.25951954,49.2802944 9.97855284,48.5630714 L10.0438372,48.4979002 C11.0869164,47.4574234 12.4296022,46.9115011 13.8139251,46.9115011 M21.1201175,55.9149736 L21.0827799,55.9149736 C19.1278692,55.9149736 17.537397,54.3246145 17.537397,52.3695908 L17.537397,52.3118871 C17.537397,50.4954653 16.3619389,49.360626 15.2618349,48.904088 C14.1618441,48.4473236 12.5281507,48.4170009 11.2421504,49.6998332 L11.176866,49.7648913 C9.79797401,51.1402758 7.55284775,51.1416335 6.17203231,49.7672673 L6.13752324,49.7329845 C5.46533178,49.0637348 5.09444412,48.1729482 5.09319953,47.2246842 C5.09195494,46.276307 5.46046657,45.3846152 6.13084772,44.7137815 L6.16954313,44.674973 C7.45407261,43.3898778 7.42431561,41.7556186 6.96811699,40.6547227 C6.51191838,39.5539399 5.37696593,38.3775765 3.55963902,38.3775765 L3.54538281,38.3775765 C1.59047219,38.3775765 2.48689958e-14,36.7872175 2.48689958e-14,34.8321937 L2.48689958e-14,34.7949692 C2.48689958e-14,32.8400586 1.59047219,31.2494732 3.54538281,31.2494732 C5.37198757,31.2494732 6.50694002,30.0729967 6.96302549,28.9717614 C7.41911096,27.8707523 7.44841538,26.2362669 6.1630939,24.9510585 L6.14193588,24.9297873 C5.47268618,24.2606508 5.10394826,23.3685064 5.10519285,22.4196767 C5.10655058,21.4707338 5.47777768,20.5796077 6.150648,19.9104712 L6.17271118,19.8885211 C7.55284775,18.5160784 9.79774772,18.518115 11.1763003,19.8933863 L11.2421504,19.9591233 C12.5276981,21.2418425 14.1612784,21.2114066 15.2616086,20.7549817 C16.3618257,20.2985568 17.537397,19.1636043 17.537397,17.3469563 L17.537397,17.2575721 C17.537397,15.3026615 19.1278692,13.7120762 21.0827799,13.7120762 L21.1201175,13.7120762 C23.0750282,13.7120762 24.6655004,15.3026615 24.6655004,17.2575721 L24.6655004,17.3054323 C24.6655004,19.1246826 25.8434477,20.2596351 26.9459277,20.7153811 C28.0482945,21.1707877 29.6840245,21.1986213 30.9681014,19.9101317 C31.6382563,19.2379403 32.5299481,18.8677315 33.4791172,18.8677315 L33.4810407,18.8677315 C34.4308887,18.8681841 35.32292,19.2394112 35.9927354,19.9128472 C37.3686856,21.2959255 37.365065,23.5428621 35.9847021,24.9215278 L35.9563029,24.9498139 C34.6703025,26.2345697 34.6990412,27.8693945 35.1550135,28.9709693 C35.6108727,30.072431 36.7458252,31.2494732 38.5640572,31.2494732 L38.6575146,31.2494732 C40.6124252,31.2494732 42.2028974,32.8400586 42.2028974,34.7949692 L42.2028974,34.8321937 C42.2028974,36.7872175 40.6124252,38.3775765 38.6575146,38.3775765 L38.5606629,38.3775765 C36.7426571,38.3775765 35.6077047,39.5545056 35.1516192,40.6558541 C34.69576,41.7572027 34.6666819,43.3920275 35.9525691,44.6768964 L35.9983926,44.7227199 C37.3780766,46.1016119 37.3811315,48.3483222 36.0052944,49.7311742 L35.9930748,49.7433938 C35.3223542,50.4175088 34.4305493,50.7885096 33.4809275,50.7890753 L33.4788909,50.7890753 C32.5300612,50.7890753 31.6387088,50.4190928 30.9686671,49.7473539 C29.6830062,48.4582986 28.0476157,48.4863585 26.945362,48.9418782 C25.8432214,49.3976243 24.6655004,50.5325767 24.6655004,52.3514876 L24.6655004,52.3695908 C24.6655004,54.3246145 23.0750282,55.9149736 21.1201175,55.9149736" id="Fill-3"></path>
                    <path d="M40.5797338,12.9585341 C39.7166935,12.9585341 39.0146046,13.660723 39.0146046,14.5237485 C39.0146046,15.386774 39.7166935,16.0888508 40.5797338,16.0888508 C41.4427742,16.0888508 42.1448631,15.386774 42.1448631,14.5237485 C42.1448631,13.660723 41.4427742,12.9585341 40.5797338,12.9585341 M40.5797338,17.7700692 C38.7896536,17.7700692 37.3333571,16.3137978 37.3333571,14.5237485 C37.3333571,12.7335871 38.7896536,11.2773157 40.5797338,11.2773157 C42.3698141,11.2773157 43.8261106,12.7335871 43.8261106,14.5237485 C43.8261106,16.3137978 42.3698141,17.7700692 40.5797338,17.7700692" id="Fill-6"></path>
                    <path d="M40.5870661,29.057888 L40.5618278,29.057888 C39.0875433,29.057888 37.8881524,27.8583834 37.8881524,26.3840989 L37.8881524,26.3452182 C37.8881524,25.8363581 37.7305831,25.3666062 37.4326112,24.9866664 C37.1419152,24.6162763 37.2067164,24.0803589 37.5771065,23.7896629 C37.9476103,23.4988533 38.4836414,23.5635408 38.7743374,23.934272 C39.3101411,24.6171858 39.5934475,25.4509614 39.5934475,26.3452182 L39.5934475,26.3840989 C39.5934475,26.9181974 40.027843,27.3525929 40.5618278,27.3525929 L40.5870661,27.3525929 C41.1210509,27.3525929 41.5555601,26.9181974 41.5555601,26.3840989 L41.5555601,26.3719345 C41.5555601,24.7563379 42.4830133,23.3692508 43.976056,22.751934 C45.466825,22.1355266 47.1002704,22.460897 48.2409991,23.6006025 C48.2430455,23.6026489 48.2450918,23.6045816 48.2470245,23.6066279 C48.4300595,23.7901177 48.6735757,23.8911848 48.9327805,23.8911848 L48.9332353,23.8911848 C49.1926675,23.8910711 49.4361836,23.7896629 49.6192187,23.6058321 L49.6258125,23.5990109 C50.0039332,23.2191849 50.0030237,22.6053923 49.6261535,22.2287494 L49.5945487,22.1971446 C48.4531378,21.0565296 48.1273128,19.4206968 48.7449707,17.9286772 C49.3626286,16.4367714 50.7494883,15.5100003 52.3641754,15.5100003 L52.4296587,15.5100003 C52.9636435,15.5100003 53.3981527,15.0756048 53.3981527,14.54162 L53.3981527,14.5163817 C53.3981527,13.9823969 52.9636435,13.5478877 52.4296587,13.5478877 L52.3665628,13.5478877 C50.7516483,13.5478877 49.3647886,12.621003 48.7472444,11.1288697 C48.1295865,9.63673649 48.4556389,8.00067634 49.5983004,6.85937915 L49.6186502,6.83914298 C49.9942699,6.46386436 49.9951794,5.84995812 49.619446,5.4721784 C49.436411,5.2882339 49.1927812,5.18682568 48.9334626,5.18671199 L48.9328942,5.18671199 C48.6735757,5.18671199 48.4299458,5.28789284 48.2469108,5.47149628 C47.1060684,6.61597669 45.4700082,6.94339336 43.9765107,6.32630389 C42.4832406,5.70910074 41.5555601,4.32201367 41.5555601,2.70618969 L41.5555601,2.67378908 C41.5555601,2.13980433 41.1210509,1.70529513 40.5870661,1.70529513 L40.5618278,1.70529513 C40.027843,1.70529513 39.5934475,2.13980433 39.5934475,2.67378908 L39.5934475,2.73415653 C39.5934475,4.34770679 38.6675859,5.73411173 37.177158,6.35233806 C35.68673,6.97067808 34.0515794,6.64655832 32.9093727,5.50696642 L32.8658308,5.46353824 C32.4887332,5.08723644 31.8753954,5.08666801 31.4982978,5.46183294 L31.4843144,5.47570268 C31.3000288,5.65907875 31.1986206,5.90236752 31.1982796,6.16157238 C31.1979385,6.42077724 31.2986646,6.66440707 31.4820407,6.84789683 L31.493864,6.85960652 C32.6367528,8.00238163 32.9621232,9.63821441 32.3443516,11.1297792 C31.72658,12.621344 30.339834,13.5478877 28.7253742,13.5478877 C28.1853641,13.5478877 27.7508549,13.9823969 27.7508549,14.5163817 L27.7508549,14.54162 C27.7508549,15.0756048 28.1853641,15.5100003 28.7193489,15.5100003 C29.8730379,15.5100003 30.912131,15.9736132 31.6547302,16.8153469 C31.9662308,17.1685704 31.9325796,17.7073299 31.5794699,18.0188305 C31.2262464,18.3305585 30.6874868,18.2966799 30.3759862,17.9435701 C29.9617132,17.4739319 29.376797,17.2152954 28.7288985,17.2152954 C27.2450644,17.2152954 26.0455598,16.0157908 26.0455598,14.54162 L26.0455598,14.5163817 C26.0455598,13.0420972 27.2450644,11.8425926 28.7193489,11.8425926 C29.8150578,11.8425926 30.4953569,11.1372825 30.7688862,10.4772196 C31.0421882,9.81704303 31.0598096,8.83718045 30.2892436,8.0667281 L30.2774202,8.05490472 C29.7701517,7.54752258 29.4919612,6.8747268 29.4929844,6.15907128 C29.4940076,5.44352944 29.7740171,4.77164316 30.2813992,4.26710317 L30.2953826,4.25311975 C31.3372043,3.21709611 33.0301076,3.21834666 34.0698829,4.25596191 L34.1135384,4.29939009 C34.8847866,5.06893294 35.8641944,5.05074313 36.5238026,4.77721379 C37.1834107,4.50368445 37.8881524,3.823158 37.8881524,2.73415653 L37.8881524,2.67378908 C37.8881524,1.1995046 39.0875433,0 40.5618278,0 L40.5870661,0 C42.0613506,0 43.2608552,1.1995046 43.2608552,2.67378908 L43.2608552,2.70618969 C43.2608552,3.79678277 43.9669611,4.47719553 44.6278198,4.75038381 C45.2885648,5.02334472 46.2692232,5.03994293 47.0391071,4.26755792 C47.5445566,3.76063052 48.217125,3.48141686 48.9328942,3.48141686 L48.9342584,3.48141686 C49.6505961,3.48187161 50.3232782,3.76176738 50.8283866,4.26960427 C51.8660018,5.31279015 51.8632734,7.00728508 50.8223612,8.04706037 L50.8020114,8.06729654 C50.0322411,8.83615727 50.0495215,9.81636091 50.3228234,10.4767649 C50.5962391,11.1369415 51.2765382,11.8425926 52.3665628,11.8425926 L52.4296587,11.8425926 C53.9039432,11.8425926 55.1034478,13.0420972 55.1034478,14.5163817 L55.1034478,14.54162 C55.1034478,16.0157908 53.9039432,17.2152954 52.4296587,17.2152954 L52.3641754,17.2152954 C51.2743781,17.2152954 50.5939654,17.9208329 50.3206634,18.5811232 C50.0472477,19.2412997 50.0298537,20.221276 50.8007608,20.9917284 L50.8323656,21.0232195 C51.8721409,22.0624263 51.8745283,23.7568076 50.8369131,24.7996524 L50.8302056,24.8064736 C50.3229371,25.3162431 49.6503687,25.5961389 48.9342584,25.59648 L48.9326668,25.59648 C48.2197398,25.59648 47.5497862,25.3194264 47.0450188,24.8161369 C47.0428588,24.8140906 47.0408124,24.8120442 47.0387661,24.8099979 C46.2687685,24.0381813 45.2884511,24.0546658 44.6275924,24.3279678 C43.9668474,24.601156 43.2608552,25.2814551 43.2608552,26.3719345 L43.2608552,26.3840989 C43.2608552,27.8583834 42.0613506,29.057888 40.5870661,29.057888" id="Fill-8"></path>
                </g>
            </g>
        </g>
    </g>
</svg>